# MagicaVoxel @ Ephtracy

# group
o 

# material
mtllib light3.mtl
usemtl palette

# normals
vn -1 0 0
vn 1 0 0
vn 0 0 1
vn 0 0 -1
vn 0 -1 0
vn 0 1 0

# texcoords
vt 0.00195313 0.5
vt 0.279297 0.5
vt 0.841797 0.5
vt 0.955078 0.5

# verts
v 1.4 3.3 -1.5
v 1.4 3.3 -2.1
v 1.4 3.3 -2.2
v 1.4 3.7 -1.5
v 1.4 3.7 -2.1
v 1.4 3.7 -2.2
v 1.4 3.7 -2.8
v 1.4 3.8 -1.5
v 1.4 3.8 -2.8
v 1.5 3.3 -2.2
v 1.5 3.3 -2.8
v 1.5 3.7 -2.2
v 1.5 3.7 -2.8
v 1.6 2 -2
v 1.6 2 -2.3
v 1.6 2.3 -2
v 1.6 2.3 -2.3
v 1.6 2.6 -2
v 1.6 2.6 -2.3
v 1.6 2.9 -2
v 1.6 2.9 -2.3
v 1.6 3.2 -2
v 1.6 3.2 -2.3
v 1.6 3.3 -2
v 1.6 3.3 -2.3
v 1.6 3.8 -2
v 1.6 3.8 -2.3
v 1.6 4.1 -2
v 1.6 4.1 -2.3
v 1.9 2 -2
v 1.9 2 -2.3
v 1.9 2.3 -2
v 1.9 2.3 -2.3
v 1.9 2.6 -2
v 1.9 2.6 -2.3
v 1.9 2.9 -2
v 1.9 2.9 -2.3
v 1.9 3.2 -2
v 1.9 3.2 -2.3
v 1.9 3.3 -1.5
v 1.9 3.3 -2
v 1.9 3.3 -2.3
v 1.9 3.3 -2.8
v 1.9 3.5 -2
v 1.9 3.5 -2.3
v 1.9 3.8 -1.5
v 1.9 3.8 -2
v 1.9 3.8 -2.3
v 1.9 3.8 -2.8
v 1.9 4.1 -2
v 1.9 4.1 -2.3
v 1.4 3.3 -1.5
v 1.4 3.7 -1.5
v 1.4 3.8 -1.5
v 1.5 3.3 -1.5
v 1.5 3.7 -1.5
v 1.9 3.3 -1.5
v 1.9 3.8 -1.5
v 1.6 2 -2
v 1.6 2.3 -2
v 1.6 2.6 -2
v 1.6 2.9 -2
v 1.6 3.2 -2
v 1.6 3.3 -2
v 1.6 3.8 -2
v 1.6 4.1 -2
v 1.9 2 -2
v 1.9 2.3 -2
v 1.9 2.6 -2
v 1.9 2.9 -2
v 1.9 3.2 -2
v 1.9 3.3 -2
v 1.9 3.8 -2
v 1.9 4.1 -2
v 1.4 3.3 -2.2
v 1.4 3.7 -2.2
v 1.5 3.3 -2.2
v 1.5 3.7 -2.2
v 1.6 2 -2.3
v 1.6 2.3 -2.3
v 1.6 2.6 -2.3
v 1.6 2.9 -2.3
v 1.6 3.2 -2.3
v 1.6 3.3 -2.3
v 1.6 3.8 -2.3
v 1.6 4.1 -2.3
v 1.9 2 -2.3
v 1.9 2.3 -2.3
v 1.9 2.6 -2.3
v 1.9 2.9 -2.3
v 1.9 3.2 -2.3
v 1.9 3.3 -2.3
v 1.9 3.8 -2.3
v 1.9 4.1 -2.3
v 1.4 3.7 -2.8
v 1.4 3.8 -2.8
v 1.5 3.3 -2.8
v 1.5 3.7 -2.8
v 1.9 3.3 -2.8
v 1.9 3.8 -2.8
v 1.6 2 -2
v 1.9 2 -2
v 1.6 2 -2.3
v 1.9 2 -2.3
v 1.4 3.3 -1.5
v 1.5 3.3 -1.5
v 1.9 3.3 -1.5
v 1.6 3.3 -2
v 1.9 3.3 -2
v 1.4 3.3 -2.1
v 1.5 3.3 -2.1
v 1.4 3.3 -2.2
v 1.5 3.3 -2.2
v 1.6 3.3 -2.3
v 1.9 3.3 -2.3
v 1.5 3.3 -2.8
v 1.9 3.3 -2.8
v 1.4 3.7 -2.2
v 1.5 3.7 -2.2
v 1.4 3.7 -2.8
v 1.5 3.7 -2.8
v 1.4 3.8 -1.5
v 1.9 3.8 -1.5
v 1.6 3.8 -2
v 1.9 3.8 -2
v 1.6 3.8 -2.3
v 1.9 3.8 -2.3
v 1.4 3.8 -2.8
v 1.9 3.8 -2.8
v 1.6 4.1 -2
v 1.9 4.1 -2
v 1.6 4.1 -2.3
v 1.9 4.1 -2.3

# faces
f 4/3/1 2/3/1 1/3/1
f 5/4/1 3/4/1 2/4/1
f 5/3/1 2/3/1 4/3/1
f 6/4/1 3/4/1 5/4/1
f 8/4/1 5/4/1 4/4/1
f 8/4/1 7/4/1 6/4/1
f 8/4/1 6/4/1 5/4/1
f 9/4/1 7/4/1 8/4/1
f 12/4/1 11/4/1 10/4/1
f 13/4/1 11/4/1 12/4/1
f 16/1/1 15/1/1 14/1/1
f 17/1/1 15/1/1 16/1/1
f 18/2/1 17/2/1 16/2/1
f 19/2/1 17/2/1 18/2/1
f 20/1/1 19/1/1 18/1/1
f 21/1/1 19/1/1 20/1/1
f 22/2/1 21/2/1 20/2/1
f 23/2/1 21/2/1 22/2/1
f 24/1/1 23/1/1 22/1/1
f 25/1/1 23/1/1 24/1/1
f 28/1/1 27/1/1 26/1/1
f 29/1/1 27/1/1 28/1/1
f 30/1/2 31/1/2 32/1/2
f 32/1/2 31/1/2 33/1/2
f 32/2/2 33/2/2 34/2/2
f 34/2/2 33/2/2 35/2/2
f 34/1/2 35/1/2 36/1/2
f 36/1/2 35/1/2 37/1/2
f 36/2/2 37/2/2 38/2/2
f 38/2/2 37/2/2 39/2/2
f 38/1/2 39/1/2 41/1/2
f 41/1/2 39/1/2 42/1/2
f 41/1/2 42/1/2 44/1/2
f 40/4/2 41/4/2 44/4/2
f 42/4/2 43/4/2 45/4/2
f 44/1/2 42/1/2 45/1/2
f 40/4/2 44/4/2 46/4/2
f 44/2/2 45/2/2 47/2/2
f 46/4/2 44/4/2 47/4/2
f 45/4/2 43/4/2 48/4/2
f 47/2/2 45/2/2 48/2/2
f 48/4/2 43/4/2 49/4/2
f 47/1/2 48/1/2 50/1/2
f 50/1/2 48/1/2 51/1/2
f 55/3/3 53/3/3 52/3/3
f 56/4/3 54/4/3 53/4/3
f 56/3/3 53/3/3 55/3/3
f 57/4/3 56/4/3 55/4/3
f 58/4/3 54/4/3 56/4/3
f 58/4/3 56/4/3 57/4/3
f 67/1/3 60/1/3 59/1/3
f 68/2/3 61/2/3 60/2/3
f 68/1/3 60/1/3 67/1/3
f 69/1/3 62/1/3 61/1/3
f 69/2/3 61/2/3 68/2/3
f 70/2/3 63/2/3 62/2/3
f 70/1/3 62/1/3 69/1/3
f 71/1/3 64/1/3 63/1/3
f 71/2/3 63/2/3 70/2/3
f 72/1/3 64/1/3 71/1/3
f 73/1/3 66/1/3 65/1/3
f 74/1/3 66/1/3 73/1/3
f 75/4/4 76/4/4 77/4/4
f 77/4/4 76/4/4 78/4/4
f 79/1/4 80/1/4 87/1/4
f 80/2/4 81/2/4 88/2/4
f 87/1/4 80/1/4 88/1/4
f 81/1/4 82/1/4 89/1/4
f 88/2/4 81/2/4 89/2/4
f 82/2/4 83/2/4 90/2/4
f 89/1/4 82/1/4 90/1/4
f 83/1/4 84/1/4 91/1/4
f 90/2/4 83/2/4 91/2/4
f 91/1/4 84/1/4 92/1/4
f 85/1/4 86/1/4 93/1/4
f 93/1/4 86/1/4 94/1/4
f 95/4/4 96/4/4 98/4/4
f 97/4/4 98/4/4 99/4/4
f 98/4/4 96/4/4 100/4/4
f 99/4/4 98/4/4 100/4/4
f 103/1/5 102/1/5 101/1/5
f 104/1/5 102/1/5 103/1/5
f 108/4/5 107/4/5 106/4/5
f 109/4/5 107/4/5 108/4/5
f 110/3/5 106/3/5 105/3/5
f 111/4/5 108/4/5 106/4/5
f 111/3/5 106/3/5 110/3/5
f 112/4/5 111/4/5 110/4/5
f 113/4/5 108/4/5 111/4/5
f 113/4/5 111/4/5 112/4/5
f 114/4/5 108/4/5 113/4/5
f 116/4/5 114/4/5 113/4/5
f 116/4/5 115/4/5 114/4/5
f 117/4/5 115/4/5 116/4/5
f 120/4/5 119/4/5 118/4/5
f 121/4/5 119/4/5 120/4/5
f 122/4/6 123/4/6 124/4/6
f 124/4/6 123/4/6 125/4/6
f 122/4/6 124/4/6 126/4/6
f 122/4/6 126/4/6 128/4/6
f 126/4/6 127/4/6 128/4/6
f 128/4/6 127/4/6 129/4/6
f 130/1/6 131/1/6 132/1/6
f 132/1/6 131/1/6 133/1/6
