# MagicaVoxel @ Ephtracy

# group
o 

# material
mtllib untitled.mtl
usemtl palette

# normals
vn -1 0 0
vn 1 0 0
vn 0 0 1
vn 0 0 -1
vn 0 -1 0
vn 0 1 0

# texcoords
vt 0.0878906 0.5
vt 0.0917969 0.5
vt 0.876953 0.5
vt 0.955078 0.5
vt 0.958984 0.5

# verts
v 0.6 2 -1.4
v 0.6 2 -2.6
v 0.6 2.5 -1.4
v 0.6 2.5 -2.6
v 0.9 2 -1.3
v 0.9 2 -1.4
v 0.9 2 -2.6
v 0.9 2 -2.7
v 0.9 2.3 -1.3
v 0.9 2.3 -1.4
v 0.9 2.3 -2.6
v 0.9 2.3 -2.7
v 0.9 2.4 -1.3
v 0.9 2.4 -1.4
v 0.9 2.4 -2.6
v 0.9 2.4 -2.7
v 1.6 2.5 -1.6
v 1.6 2.5 -2.4
v 1.6 3.1 -1.6
v 1.6 3.1 -2.4
v 1.7 3.1 -1.8
v 1.7 3.1 -2.2
v 1.7 3.2 -1.8
v 1.7 3.2 -2.2
v 2.7 2 -1.3
v 2.7 2 -1.4
v 2.7 2 -2.6
v 2.7 2 -2.7
v 2.7 2.3 -1.3
v 2.7 2.3 -1.4
v 2.7 2.3 -2.6
v 2.7 2.3 -2.7
v 2.7 2.4 -1.3
v 2.7 2.4 -1.4
v 2.7 2.4 -2.6
v 2.7 2.4 -2.7
v 1.3 2 -1.3
v 1.3 2 -1.4
v 1.3 2 -2.6
v 1.3 2 -2.7
v 1.3 2.3 -1.3
v 1.3 2.3 -1.4
v 1.3 2.3 -2.6
v 1.3 2.3 -2.7
v 1.3 2.4 -1.3
v 1.3 2.4 -1.4
v 1.3 2.4 -2.6
v 1.3 2.4 -2.7
v 2.2 3.1 -1.8
v 2.2 3.1 -2.2
v 2.2 3.2 -1.8
v 2.2 3.2 -2.2
v 3.1 2 -1.3
v 3.1 2 -1.4
v 3.1 2 -2.6
v 3.1 2 -2.7
v 3.1 2.3 -1.3
v 3.1 2.3 -1.4
v 3.1 2.3 -2.6
v 3.1 2.3 -2.7
v 3.1 2.4 -1.3
v 3.1 2.4 -1.4
v 3.1 2.4 -2.6
v 3.1 2.4 -2.7
v 3.3 2.5 -1.6
v 3.3 2.5 -2.4
v 3.3 3.1 -1.6
v 3.3 3.1 -2.4
v 3.5 2 -1.4
v 3.5 2 -2.6
v 3.5 2.5 -1.4
v 3.5 2.5 -2.6
v 0.9 2 -1.3
v 0.9 2.3 -1.3
v 0.9 2.4 -1.3
v 1 2.1 -1.3
v 1 2.3 -1.3
v 1.2 2.1 -1.3
v 1.2 2.3 -1.3
v 1.3 2 -1.3
v 1.3 2.3 -1.3
v 1.3 2.4 -1.3
v 2.7 2 -1.3
v 2.7 2.3 -1.3
v 2.7 2.4 -1.3
v 2.8 2.1 -1.3
v 2.8 2.3 -1.3
v 3 2.1 -1.3
v 3 2.3 -1.3
v 3.1 2 -1.3
v 3.1 2.3 -1.3
v 3.1 2.4 -1.3
v 0.6 2 -1.4
v 0.6 2.5 -1.4
v 0.9 2 -1.4
v 0.9 2.3 -1.4
v 0.9 2.4 -1.4
v 1.3 2 -1.4
v 1.3 2.3 -1.4
v 1.3 2.4 -1.4
v 2.7 2 -1.4
v 2.7 2.3 -1.4
v 2.7 2.4 -1.4
v 3.1 2 -1.4
v 3.1 2.3 -1.4
v 3.1 2.4 -1.4
v 3.5 2 -1.4
v 3.5 2.5 -1.4
v 1.6 2.5 -1.6
v 1.6 3.1 -1.6
v 1.8 2.5 -1.6
v 1.8 2.9 -1.6
v 2.7 2.5 -1.6
v 2.7 2.9 -1.6
v 2.9 2.5 -1.6
v 2.9 2.9 -1.6
v 3.2 2.5 -1.6
v 3.2 2.9 -1.6
v 3.3 2.5 -1.6
v 3.3 3.1 -1.6
v 1.7 3.1 -1.8
v 1.7 3.2 -1.8
v 2.2 3.1 -1.8
v 2.2 3.2 -1.8
v 1.7 3.1 -2.2
v 1.7 3.2 -2.2
v 2.2 3.1 -2.2
v 2.2 3.2 -2.2
v 1.6 2.5 -2.4
v 1.6 3.1 -2.4
v 1.8 2.5 -2.4
v 1.8 2.9 -2.4
v 2.7 2.5 -2.4
v 2.7 2.9 -2.4
v 2.9 2.5 -2.4
v 2.9 2.9 -2.4
v 3.2 2.5 -2.4
v 3.2 2.9 -2.4
v 3.3 2.5 -2.4
v 3.3 3.1 -2.4
v 0.6 2 -2.6
v 0.6 2.5 -2.6
v 0.9 2 -2.6
v 0.9 2.3 -2.6
v 0.9 2.4 -2.6
v 1.3 2 -2.6
v 1.3 2.3 -2.6
v 1.3 2.4 -2.6
v 2.7 2 -2.6
v 2.7 2.3 -2.6
v 2.7 2.4 -2.6
v 3.1 2 -2.6
v 3.1 2.3 -2.6
v 3.1 2.4 -2.6
v 3.5 2 -2.6
v 3.5 2.5 -2.6
v 0.9 2 -2.7
v 0.9 2.3 -2.7
v 0.9 2.4 -2.7
v 1 2.1 -2.7
v 1 2.3 -2.7
v 1.2 2.1 -2.7
v 1.2 2.3 -2.7
v 1.3 2 -2.7
v 1.3 2.3 -2.7
v 1.3 2.4 -2.7
v 2.7 2 -2.7
v 2.7 2.3 -2.7
v 2.7 2.4 -2.7
v 2.8 2.1 -2.7
v 2.8 2.3 -2.7
v 3 2.1 -2.7
v 3 2.3 -2.7
v 3.1 2 -2.7
v 3.1 2.3 -2.7
v 3.1 2.4 -2.7
v 0.9 2 -1.3
v 1.3 2 -1.3
v 2.7 2 -1.3
v 3.1 2 -1.3
v 0.6 2 -1.4
v 0.9 2 -1.4
v 1.3 2 -1.4
v 2.7 2 -1.4
v 3.1 2 -1.4
v 3.5 2 -1.4
v 0.6 2 -2.6
v 0.9 2 -2.6
v 1.3 2 -2.6
v 2.7 2 -2.6
v 3.1 2 -2.6
v 3.5 2 -2.6
v 0.9 2 -2.7
v 1.3 2 -2.7
v 2.7 2 -2.7
v 3.1 2 -2.7
v 0.9 2.4 -1.3
v 1.3 2.4 -1.3
v 2.7 2.4 -1.3
v 3.1 2.4 -1.3
v 0.9 2.4 -1.4
v 1.3 2.4 -1.4
v 2.7 2.4 -1.4
v 3.1 2.4 -1.4
v 0.9 2.4 -2.6
v 1.3 2.4 -2.6
v 2.7 2.4 -2.6
v 3.1 2.4 -2.6
v 0.9 2.4 -2.7
v 1.3 2.4 -2.7
v 2.7 2.4 -2.7
v 3.1 2.4 -2.7
v 0.6 2.5 -1.4
v 3.5 2.5 -1.4
v 1.6 2.5 -1.6
v 1.8 2.5 -1.6
v 2.7 2.5 -1.6
v 2.9 2.5 -1.6
v 3.2 2.5 -1.6
v 3.3 2.5 -1.6
v 1.6 2.5 -2.4
v 1.8 2.5 -2.4
v 2.7 2.5 -2.4
v 2.9 2.5 -2.4
v 3.2 2.5 -2.4
v 3.3 2.5 -2.4
v 0.6 2.5 -2.6
v 3.5 2.5 -2.6
v 1.6 3.1 -1.6
v 3.3 3.1 -1.6
v 1.7 3.1 -1.8
v 2.2 3.1 -1.8
v 1.7 3.1 -2.2
v 2.2 3.1 -2.2
v 1.6 3.1 -2.4
v 3.3 3.1 -2.4
v 1.7 3.2 -1.8
v 2.2 3.2 -1.8
v 1.7 3.2 -2.2
v 2.2 3.2 -2.2

# faces
f 3/2/1 2/2/1 1/2/1
f 4/2/1 2/2/1 3/2/1
f 9/3/1 6/3/1 5/3/1
f 10/3/1 6/3/1 9/3/1
f 11/3/1 8/3/1 7/3/1
f 12/3/1 8/3/1 11/3/1
f 13/4/1 10/4/1 9/4/1
f 14/4/1 10/4/1 13/4/1
f 15/4/1 12/4/1 11/4/1
f 16/4/1 12/4/1 15/4/1
f 19/5/1 18/5/1 17/5/1
f 20/5/1 18/5/1 19/5/1
f 23/1/1 22/1/1 21/1/1
f 24/1/1 22/1/1 23/1/1
f 29/3/1 26/3/1 25/3/1
f 30/3/1 26/3/1 29/3/1
f 31/3/1 28/3/1 27/3/1
f 32/3/1 28/3/1 31/3/1
f 33/4/1 30/4/1 29/4/1
f 34/4/1 30/4/1 33/4/1
f 35/4/1 32/4/1 31/4/1
f 36/4/1 32/4/1 35/4/1
f 37/3/2 38/3/2 41/3/2
f 41/3/2 38/3/2 42/3/2
f 39/3/2 40/3/2 43/3/2
f 43/3/2 40/3/2 44/3/2
f 41/4/2 42/4/2 45/4/2
f 45/4/2 42/4/2 46/4/2
f 43/4/2 44/4/2 47/4/2
f 47/4/2 44/4/2 48/4/2
f 49/1/2 50/1/2 51/1/2
f 51/1/2 50/1/2 52/1/2
f 53/3/2 54/3/2 57/3/2
f 57/3/2 54/3/2 58/3/2
f 55/3/2 56/3/2 59/3/2
f 59/3/2 56/3/2 60/3/2
f 57/4/2 58/4/2 61/4/2
f 61/4/2 58/4/2 62/4/2
f 59/4/2 60/4/2 63/4/2
f 63/4/2 60/4/2 64/4/2
f 65/5/2 66/5/2 67/5/2
f 67/5/2 66/5/2 68/5/2
f 69/2/2 70/2/2 71/2/2
f 71/2/2 70/2/2 72/2/2
f 76/3/3 74/3/3 73/3/3
f 77/4/3 75/4/3 74/4/3
f 77/3/3 74/3/3 76/3/3
f 78/3/3 76/3/3 73/3/3
f 78/5/3 77/5/3 76/5/3
f 79/4/3 75/4/3 77/4/3
f 79/5/3 77/5/3 78/5/3
f 80/3/3 78/3/3 73/3/3
f 80/3/3 79/3/3 78/3/3
f 81/4/3 75/4/3 79/4/3
f 81/3/3 79/3/3 80/3/3
f 82/4/3 75/4/3 81/4/3
f 86/3/3 84/3/3 83/3/3
f 87/4/3 85/4/3 84/4/3
f 87/3/3 84/3/3 86/3/3
f 88/3/3 86/3/3 83/3/3
f 88/5/3 87/5/3 86/5/3
f 89/4/3 85/4/3 87/4/3
f 89/5/3 87/5/3 88/5/3
f 90/3/3 88/3/3 83/3/3
f 90/3/3 89/3/3 88/3/3
f 91/4/3 85/4/3 89/4/3
f 91/3/3 89/3/3 90/3/3
f 92/4/3 85/4/3 91/4/3
f 95/2/3 94/2/3 93/2/3
f 96/2/3 94/2/3 95/2/3
f 97/2/3 94/2/3 96/2/3
f 100/2/3 94/2/3 97/2/3
f 101/2/3 99/2/3 98/2/3
f 101/2/3 100/2/3 99/2/3
f 102/2/3 100/2/3 101/2/3
f 103/2/3 94/2/3 100/2/3
f 103/2/3 100/2/3 102/2/3
f 106/2/3 94/2/3 103/2/3
f 107/2/3 105/2/3 104/2/3
f 107/2/3 106/2/3 105/2/3
f 108/2/3 94/2/3 106/2/3
f 108/2/3 106/2/3 107/2/3
f 111/5/3 110/5/3 109/5/3
f 112/5/3 110/5/3 111/5/3
f 113/4/3 112/4/3 111/4/3
f 114/5/3 110/5/3 112/5/3
f 114/4/3 112/4/3 113/4/3
f 115/5/3 114/5/3 113/5/3
f 116/5/3 110/5/3 114/5/3
f 116/5/3 114/5/3 115/5/3
f 117/4/3 116/4/3 115/4/3
f 118/5/3 110/5/3 116/5/3
f 118/4/3 116/4/3 117/4/3
f 119/5/3 118/5/3 117/5/3
f 120/5/3 110/5/3 118/5/3
f 120/5/3 118/5/3 119/5/3
f 123/1/3 122/1/3 121/1/3
f 124/1/3 122/1/3 123/1/3
f 125/1/4 126/1/4 127/1/4
f 127/1/4 126/1/4 128/1/4
f 129/5/4 130/5/4 131/5/4
f 131/5/4 130/5/4 132/5/4
f 131/4/4 132/4/4 133/4/4
f 132/5/4 130/5/4 134/5/4
f 133/4/4 132/4/4 134/4/4
f 133/5/4 134/5/4 135/5/4
f 134/5/4 130/5/4 136/5/4
f 135/5/4 134/5/4 136/5/4
f 135/4/4 136/4/4 137/4/4
f 136/5/4 130/5/4 138/5/4
f 137/4/4 136/4/4 138/4/4
f 137/5/4 138/5/4 139/5/4
f 138/5/4 130/5/4 140/5/4
f 139/5/4 138/5/4 140/5/4
f 141/2/4 142/2/4 143/2/4
f 143/2/4 142/2/4 144/2/4
f 144/2/4 142/2/4 145/2/4
f 145/2/4 142/2/4 148/2/4
f 146/2/4 147/2/4 149/2/4
f 147/2/4 148/2/4 149/2/4
f 149/2/4 148/2/4 150/2/4
f 148/2/4 142/2/4 151/2/4
f 150/2/4 148/2/4 151/2/4
f 151/2/4 142/2/4 154/2/4
f 152/2/4 153/2/4 155/2/4
f 153/2/4 154/2/4 155/2/4
f 154/2/4 142/2/4 156/2/4
f 155/2/4 154/2/4 156/2/4
f 157/3/4 158/3/4 160/3/4
f 158/4/4 159/4/4 161/4/4
f 160/3/4 158/3/4 161/3/4
f 157/3/4 160/3/4 162/3/4
f 160/5/4 161/5/4 162/5/4
f 161/4/4 159/4/4 163/4/4
f 162/5/4 161/5/4 163/5/4
f 157/3/4 162/3/4 164/3/4
f 162/3/4 163/3/4 164/3/4
f 163/4/4 159/4/4 165/4/4
f 164/3/4 163/3/4 165/3/4
f 165/4/4 159/4/4 166/4/4
f 167/3/4 168/3/4 170/3/4
f 168/4/4 169/4/4 171/4/4
f 170/3/4 168/3/4 171/3/4
f 167/3/4 170/3/4 172/3/4
f 170/5/4 171/5/4 172/5/4
f 171/4/4 169/4/4 173/4/4
f 172/5/4 171/5/4 173/5/4
f 167/3/4 172/3/4 174/3/4
f 172/3/4 173/3/4 174/3/4
f 173/4/4 169/4/4 175/4/4
f 174/3/4 173/3/4 175/3/4
f 175/4/4 169/4/4 176/4/4
f 182/3/5 178/3/5 177/3/5
f 183/3/5 178/3/5 182/3/5
f 184/3/5 180/3/5 179/3/5
f 185/3/5 180/3/5 184/3/5
f 187/2/5 183/2/5 182/2/5
f 187/2/5 186/2/5 185/2/5
f 187/2/5 185/2/5 184/2/5
f 187/2/5 184/2/5 183/2/5
f 187/2/5 182/2/5 181/2/5
f 188/2/5 186/2/5 187/2/5
f 189/2/5 186/2/5 188/2/5
f 190/2/5 186/2/5 189/2/5
f 191/2/5 186/2/5 190/2/5
f 192/2/5 186/2/5 191/2/5
f 193/3/5 189/3/5 188/3/5
f 194/3/5 189/3/5 193/3/5
f 195/3/5 191/3/5 190/3/5
f 196/3/5 191/3/5 195/3/5
f 197/4/6 198/4/6 201/4/6
f 201/4/6 198/4/6 202/4/6
f 199/4/6 200/4/6 203/4/6
f 203/4/6 200/4/6 204/4/6
f 205/4/6 206/4/6 209/4/6
f 209/4/6 206/4/6 210/4/6
f 207/4/6 208/4/6 211/4/6
f 211/4/6 208/4/6 212/4/6
f 213/2/6 214/2/6 215/2/6
f 215/2/6 214/2/6 216/2/6
f 216/2/6 214/2/6 217/2/6
f 217/2/6 214/2/6 218/2/6
f 218/2/6 214/2/6 219/2/6
f 219/2/6 214/2/6 220/2/6
f 213/2/6 215/2/6 221/2/6
f 220/2/6 214/2/6 226/2/6
f 224/2/6 225/2/6 227/2/6
f 225/2/6 226/2/6 227/2/6
f 213/2/6 221/2/6 227/2/6
f 221/2/6 222/2/6 227/2/6
f 223/2/6 224/2/6 227/2/6
f 222/2/6 223/2/6 227/2/6
f 226/2/6 214/2/6 228/2/6
f 227/2/6 226/2/6 228/2/6
f 229/5/6 230/5/6 231/5/6
f 231/5/6 230/5/6 232/5/6
f 229/5/6 231/5/6 233/5/6
f 232/5/6 230/5/6 234/5/6
f 229/5/6 233/5/6 235/5/6
f 233/5/6 234/5/6 235/5/6
f 234/5/6 230/5/6 236/5/6
f 235/5/6 234/5/6 236/5/6
f 237/1/6 238/1/6 239/1/6
f 239/1/6 238/1/6 240/1/6
