# MagicaVoxel @ Ephtracy

# group
o 

# material
mtllib xengancam.mtl
usemtl palette

# normals
vn -1 0 0
vn 1 0 0
vn 0 0 1
vn 0 0 -1
vn 0 -1 0
vn 0 1 0

# texcoords
vt 0.0878906 0.5
vt 0.0917969 0.5
vt 0.115234 0.5
vt 0.876953 0.5
vt 0.955078 0.5
vt 0.958984 0.5
vt 0.978516 0.5

# verts
v 0.6 2.1 -1.4
v 0.6 2.1 -2.6
v 0.6 2.2 -1.4
v 0.6 2.2 -2.6
v 0.6 2.3 -1.4
v 0.6 2.3 -1.6
v 0.6 2.3 -1.8
v 0.6 2.3 -2.2
v 0.6 2.3 -2.4
v 0.6 2.3 -2.6
v 0.6 2.5 -1.6
v 0.6 2.5 -1.8
v 0.6 2.5 -2.2
v 0.6 2.5 -2.4
v 0.6 2.6 -1.4
v 0.6 2.6 -1.8
v 0.6 2.6 -2.2
v 0.6 2.6 -2.6
v 0.9 2 -1.3
v 0.9 2 -1.4
v 0.9 2 -2.6
v 0.9 2 -2.7
v 0.9 2.1 -1.4
v 0.9 2.1 -2.6
v 0.9 2.2 -1.4
v 0.9 2.2 -2.6
v 0.9 2.3 -1.3
v 0.9 2.3 -1.4
v 0.9 2.3 -2.6
v 0.9 2.3 -2.7
v 0.9 2.4 -1.3
v 0.9 2.4 -1.4
v 0.9 2.4 -2.6
v 0.9 2.4 -2.7
v 1.6 2.4 -1.2
v 1.6 2.4 -1.4
v 1.6 2.4 -2.6
v 1.6 2.4 -2.8
v 1.6 2.6 -1.2
v 1.6 2.6 -1.4
v 1.6 2.6 -1.6
v 1.6 2.6 -1.7
v 1.6 2.6 -1.8
v 1.6 2.6 -2.2
v 1.6 2.6 -2.3
v 1.6 2.6 -2.4
v 1.6 2.6 -2.6
v 1.6 2.6 -2.8
v 1.6 3 -1.7
v 1.6 3 -2.3
v 1.6 3.2 -1.6
v 1.6 3.2 -2.4
v 2 3.2 -1.8
v 2 3.2 -2.2
v 2 3.3 -1.8
v 2 3.3 -2.2
v 2.7 2 -1.3
v 2.7 2 -1.4
v 2.7 2 -2.6
v 2.7 2 -2.7
v 2.7 2.1 -1.4
v 2.7 2.1 -2.6
v 2.7 2.2 -1.4
v 2.7 2.2 -2.6
v 2.7 2.3 -1.3
v 2.7 2.3 -1.4
v 2.7 2.3 -2.6
v 2.7 2.3 -2.7
v 2.7 2.4 -1.3
v 2.7 2.4 -1.4
v 2.7 2.4 -2.6
v 2.7 2.4 -2.7
v 1.3 2 -1.3
v 1.3 2 -1.4
v 1.3 2 -2.6
v 1.3 2 -2.7
v 1.3 2.1 -1.4
v 1.3 2.1 -2.6
v 1.3 2.2 -1.4
v 1.3 2.2 -2.6
v 1.3 2.3 -1.3
v 1.3 2.3 -1.4
v 1.3 2.3 -2.6
v 1.3 2.3 -2.7
v 1.3 2.4 -1.3
v 1.3 2.4 -1.4
v 1.3 2.4 -2.6
v 1.3 2.4 -2.7
v 2 2.4 -1.2
v 2 2.4 -1.4
v 2 2.4 -2.6
v 2 2.4 -2.8
v 2 2.6 -1.2
v 2 2.6 -1.4
v 2 2.6 -2.6
v 2 2.6 -2.8
v 2.3 3.2 -1.8
v 2.3 3.2 -2.2
v 2.3 3.3 -1.8
v 2.3 3.3 -2.2
v 3.1 2 -1.3
v 3.1 2 -1.4
v 3.1 2 -2.6
v 3.1 2 -2.7
v 3.1 2.1 -1.4
v 3.1 2.1 -2.6
v 3.1 2.2 -1.4
v 3.1 2.2 -2.6
v 3.1 2.3 -1.3
v 3.1 2.3 -1.4
v 3.1 2.3 -2.6
v 3.1 2.3 -2.7
v 3.1 2.4 -1.3
v 3.1 2.4 -1.4
v 3.1 2.4 -2.6
v 3.1 2.4 -2.7
v 3.1 2.6 -1.6
v 3.1 2.6 -1.8
v 3.1 2.6 -2.2
v 3.1 2.6 -2.4
v 3.1 2.7 -1.7
v 3.1 2.7 -2.3
v 3.1 3 -1.7
v 3.1 3 -2.3
v 3.1 3.2 -1.6
v 3.1 3.2 -2.4
v 3.5 2.1 -1.4
v 3.5 2.1 -2.6
v 3.5 2.2 -1.4
v 3.5 2.2 -2.6
v 3.5 2.3 -1.4
v 3.5 2.3 -1.8
v 3.5 2.3 -2.2
v 3.5 2.3 -2.6
v 3.5 2.6 -1.4
v 3.5 2.6 -1.8
v 3.5 2.6 -2.2
v 3.5 2.6 -2.6
v 1.6 2.4 -1.2
v 1.6 2.6 -1.2
v 2 2.4 -1.2
v 2 2.6 -1.2
v 0.9 2 -1.3
v 0.9 2.3 -1.3
v 0.9 2.4 -1.3
v 1 2.1 -1.3
v 1 2.3 -1.3
v 1.2 2.1 -1.3
v 1.2 2.3 -1.3
v 1.3 2 -1.3
v 1.3 2.3 -1.3
v 1.3 2.4 -1.3
v 2.7 2 -1.3
v 2.7 2.3 -1.3
v 2.7 2.4 -1.3
v 2.8 2.1 -1.3
v 2.8 2.3 -1.3
v 3 2.1 -1.3
v 3 2.3 -1.3
v 3.1 2 -1.3
v 3.1 2.3 -1.3
v 3.1 2.4 -1.3
v 0.6 2.1 -1.4
v 0.6 2.2 -1.4
v 0.6 2.3 -1.4
v 0.6 2.6 -1.4
v 0.9 2.1 -1.4
v 0.9 2.2 -1.4
v 0.9 2.3 -1.4
v 0.9 2.4 -1.4
v 1.3 2.1 -1.4
v 1.3 2.2 -1.4
v 1.3 2.3 -1.4
v 1.3 2.4 -1.4
v 1.6 2.4 -1.4
v 1.6 2.6 -1.4
v 2 2.4 -1.4
v 2 2.6 -1.4
v 2.7 2.1 -1.4
v 2.7 2.2 -1.4
v 2.7 2.3 -1.4
v 2.7 2.4 -1.4
v 3.1 2.1 -1.4
v 3.1 2.2 -1.4
v 3.1 2.3 -1.4
v 3.1 2.4 -1.4
v 3.5 2.1 -1.4
v 3.5 2.2 -1.4
v 3.5 2.3 -1.4
v 3.5 2.6 -1.4
v 1.6 2.6 -1.6
v 1.6 3.2 -1.6
v 1.8 2.6 -1.6
v 1.8 3 -1.6
v 2.6 2.6 -1.6
v 2.6 3 -1.6
v 2.7 2.6 -1.6
v 2.7 3 -1.6
v 2.8 2.6 -1.6
v 3 2.6 -1.6
v 3 3 -1.6
v 3.1 2.6 -1.6
v 3.1 3.2 -1.6
v 2 3.2 -1.8
v 2 3.3 -1.8
v 2.2 3.2 -1.8
v 2.2 3.3 -1.8
v 2.3 3.2 -1.8
v 2.3 3.3 -1.8
v 0.9 2 -2.6
v 0.9 2.1 -2.6
v 1.3 2 -2.6
v 1.3 2.1 -2.6
v 2.7 2 -2.6
v 2.7 2.1 -2.6
v 3.1 2 -2.6
v 3.1 2.1 -2.6
v 0.9 2 -1.4
v 0.9 2.1 -1.4
v 1.3 2 -1.4
v 1.3 2.1 -1.4
v 2.7 2 -1.4
v 2.7 2.1 -1.4
v 3.1 2 -1.4
v 3.1 2.1 -1.4
v 2 3.2 -2.2
v 2 3.3 -2.2
v 2.2 3.2 -2.2
v 2.2 3.3 -2.2
v 2.3 3.2 -2.2
v 2.3 3.3 -2.2
v 1.6 2.6 -2.4
v 1.6 3.2 -2.4
v 1.8 2.6 -2.4
v 1.8 3 -2.4
v 2.6 2.6 -2.4
v 2.6 3 -2.4
v 2.7 2.6 -2.4
v 2.7 3 -2.4
v 2.8 2.6 -2.4
v 3 2.6 -2.4
v 3 3 -2.4
v 3.1 2.6 -2.4
v 3.1 3.2 -2.4
v 0.6 2.1 -2.6
v 0.6 2.2 -2.6
v 0.6 2.3 -2.6
v 0.6 2.6 -2.6
v 0.9 2.1 -2.6
v 0.9 2.2 -2.6
v 0.9 2.3 -2.6
v 0.9 2.4 -2.6
v 1.3 2.1 -2.6
v 1.3 2.2 -2.6
v 1.3 2.3 -2.6
v 1.3 2.4 -2.6
v 1.6 2.4 -2.6
v 1.6 2.6 -2.6
v 2 2.4 -2.6
v 2 2.6 -2.6
v 2.7 2.1 -2.6
v 2.7 2.2 -2.6
v 2.7 2.3 -2.6
v 2.7 2.4 -2.6
v 3.1 2.1 -2.6
v 3.1 2.2 -2.6
v 3.1 2.3 -2.6
v 3.1 2.4 -2.6
v 3.5 2.1 -2.6
v 3.5 2.2 -2.6
v 3.5 2.3 -2.6
v 3.5 2.6 -2.6
v 0.9 2 -2.7
v 0.9 2.3 -2.7
v 0.9 2.4 -2.7
v 1 2.1 -2.7
v 1 2.3 -2.7
v 1.2 2.1 -2.7
v 1.2 2.3 -2.7
v 1.3 2 -2.7
v 1.3 2.3 -2.7
v 1.3 2.4 -2.7
v 2.7 2 -2.7
v 2.7 2.3 -2.7
v 2.7 2.4 -2.7
v 2.8 2.1 -2.7
v 2.8 2.3 -2.7
v 3 2.1 -2.7
v 3 2.3 -2.7
v 3.1 2 -2.7
v 3.1 2.3 -2.7
v 3.1 2.4 -2.7
v 1.6 2.4 -2.8
v 1.6 2.6 -2.8
v 2 2.4 -2.8
v 2 2.6 -2.8
v 0.9 2 -1.3
v 1.3 2 -1.3
v 2.7 2 -1.3
v 3.1 2 -1.3
v 0.9 2 -1.4
v 1.3 2 -1.4
v 2.7 2 -1.4
v 3.1 2 -1.4
v 0.9 2 -2.6
v 1.3 2 -2.6
v 2.7 2 -2.6
v 3.1 2 -2.6
v 0.9 2 -2.7
v 1.3 2 -2.7
v 2.7 2 -2.7
v 3.1 2 -2.7
v 0.6 2.1 -1.4
v 0.9 2.1 -1.4
v 1.3 2.1 -1.4
v 2.7 2.1 -1.4
v 3.1 2.1 -1.4
v 3.5 2.1 -1.4
v 0.7 2.1 -1.5
v 0.9 2.1 -1.5
v 1.3 2.1 -1.5
v 2.7 2.1 -1.5
v 3.1 2.1 -1.5
v 3.3 2.1 -1.5
v 0.7 2.1 -2.5
v 0.9 2.1 -2.5
v 1.3 2.1 -2.5
v 2.7 2.1 -2.5
v 3.1 2.1 -2.5
v 3.3 2.1 -2.5
v 0.6 2.1 -2.6
v 0.9 2.1 -2.6
v 1.3 2.1 -2.6
v 2.7 2.1 -2.6
v 3.1 2.1 -2.6
v 3.5 2.1 -2.6
v 1.6 2.4 -1.2
v 2 2.4 -1.2
v 1.6 2.4 -1.4
v 2 2.4 -1.4
v 1.6 2.4 -2.6
v 2 2.4 -2.6
v 1.6 2.4 -2.8
v 2 2.4 -2.8
v 0.9 2.4 -1.3
v 1.3 2.4 -1.3
v 2.7 2.4 -1.3
v 3.1 2.4 -1.3
v 0.9 2.4 -1.4
v 1.3 2.4 -1.4
v 2.7 2.4 -1.4
v 3.1 2.4 -1.4
v 0.9 2.4 -2.6
v 1.3 2.4 -2.6
v 2.7 2.4 -2.6
v 3.1 2.4 -2.6
v 0.9 2.4 -2.7
v 1.3 2.4 -2.7
v 2.7 2.4 -2.7
v 3.1 2.4 -2.7
v 1.6 2.6 -1.2
v 2 2.6 -1.2
v 0.6 2.6 -1.4
v 1.6 2.6 -1.4
v 2 2.6 -1.4
v 3.5 2.6 -1.4
v 2.8 2.6 -1.5
v 3 2.6 -1.5
v 1.6 2.6 -1.6
v 1.8 2.6 -1.6
v 2.6 2.6 -1.6
v 2.7 2.6 -1.6
v 2.8 2.6 -1.6
v 3 2.6 -1.6
v 3.1 2.6 -1.6
v 1.6 2.6 -1.7
v 0.6 2.6 -1.8
v 1.6 2.6 -1.8
v 3.1 2.6 -1.8
v 3.5 2.6 -1.8
v 0.6 2.6 -2.2
v 1.6 2.6 -2.2
v 3.1 2.6 -2.2
v 3.5 2.6 -2.2
v 1.6 2.6 -2.3
v 1.6 2.6 -2.4
v 1.8 2.6 -2.4
v 2.6 2.6 -2.4
v 2.7 2.6 -2.4
v 2.8 2.6 -2.4
v 3 2.6 -2.4
v 3.1 2.6 -2.4
v 2.8 2.6 -2.5
v 3 2.6 -2.5
v 0.6 2.6 -2.6
v 1.6 2.6 -2.6
v 2 2.6 -2.6
v 3.5 2.6 -2.6
v 1.6 2.6 -2.8
v 2 2.6 -2.8
v 1.6 3.2 -1.6
v 3.1 3.2 -1.6
v 2 3.2 -1.8
v 2.2 3.2 -1.8
v 2.3 3.2 -1.8
v 2 3.2 -2.2
v 2.2 3.2 -2.2
v 2.3 3.2 -2.2
v 1.6 3.2 -2.4
v 3.1 3.2 -2.4
v 2 3.3 -1.8
v 2.2 3.3 -1.8
v 2.3 3.3 -1.8
v 2 3.3 -2.2
v 2.2 3.3 -2.2
v 2.3 3.3 -2.2

# faces
f 3/7/1 2/7/1 1/7/1
f 4/7/1 2/7/1 3/7/1
f 5/3/1 4/3/1 3/3/1
f 6/3/1 4/3/1 5/3/1
f 7/3/1 4/3/1 6/3/1
f 8/3/1 4/3/1 7/3/1
f 9/3/1 4/3/1 8/3/1
f 10/3/1 4/3/1 9/3/1
f 11/1/1 6/1/1 5/1/1
f 11/6/1 7/6/1 6/6/1
f 12/3/1 8/3/1 7/3/1
f 12/6/1 7/6/1 11/6/1
f 13/6/1 9/6/1 8/6/1
f 13/3/1 8/3/1 12/3/1
f 14/1/1 10/1/1 9/1/1
f 14/6/1 9/6/1 13/6/1
f 15/1/1 11/1/1 5/1/1
f 15/1/1 12/1/1 11/1/1
f 16/3/1 13/3/1 12/3/1
f 16/1/1 12/1/1 15/1/1
f 17/1/1 14/1/1 13/1/1
f 17/3/1 13/3/1 16/3/1
f 18/1/1 10/1/1 14/1/1
f 18/1/1 14/1/1 17/1/1
f 23/4/1 20/4/1 19/4/1
f 24/4/1 22/4/1 21/4/1
f 25/4/1 23/4/1 19/4/1
f 26/4/1 22/4/1 24/4/1
f 27/4/1 25/4/1 19/4/1
f 28/4/1 25/4/1 27/4/1
f 29/4/1 22/4/1 26/4/1
f 30/4/1 22/4/1 29/4/1
f 31/5/1 28/5/1 27/5/1
f 32/5/1 28/5/1 31/5/1
f 33/5/1 30/5/1 29/5/1
f 34/5/1 30/5/1 33/5/1
f 39/3/1 36/3/1 35/3/1
f 40/3/1 36/3/1 39/3/1
f 47/3/1 38/3/1 37/3/1
f 48/3/1 38/3/1 47/3/1
f 49/6/1 42/6/1 41/6/1
f 49/5/1 43/5/1 42/5/1
f 49/5/1 45/5/1 44/5/1
f 49/5/1 44/5/1 43/5/1
f 50/6/1 46/6/1 45/6/1
f 50/5/1 45/5/1 49/5/1
f 51/6/1 49/6/1 41/6/1
f 51/6/1 50/6/1 49/6/1
f 52/6/1 46/6/1 50/6/1
f 52/6/1 50/6/1 51/6/1
f 55/1/1 54/1/1 53/1/1
f 56/1/1 54/1/1 55/1/1
f 61/4/1 58/4/1 57/4/1
f 62/4/1 60/4/1 59/4/1
f 63/4/1 61/4/1 57/4/1
f 64/4/1 60/4/1 62/4/1
f 65/4/1 63/4/1 57/4/1
f 66/4/1 63/4/1 65/4/1
f 67/4/1 60/4/1 64/4/1
f 68/4/1 60/4/1 67/4/1
f 69/5/1 66/5/1 65/5/1
f 70/5/1 66/5/1 69/5/1
f 71/5/1 68/5/1 67/5/1
f 72/5/1 68/5/1 71/5/1
f 73/4/2 74/4/2 77/4/2
f 75/4/2 76/4/2 78/4/2
f 73/4/2 77/4/2 79/4/2
f 78/4/2 76/4/2 80/4/2
f 73/4/2 79/4/2 81/4/2
f 81/4/2 79/4/2 82/4/2
f 80/4/2 76/4/2 83/4/2
f 83/4/2 76/4/2 84/4/2
f 81/5/2 82/5/2 85/5/2
f 85/5/2 82/5/2 86/5/2
f 83/5/2 84/5/2 87/5/2
f 87/5/2 84/5/2 88/5/2
f 89/3/2 90/3/2 93/3/2
f 93/3/2 90/3/2 94/3/2
f 91/3/2 92/3/2 95/3/2
f 95/3/2 92/3/2 96/3/2
f 97/3/2 98/3/2 99/3/2
f 99/3/2 98/3/2 100/3/2
f 101/4/2 102/4/2 105/4/2
f 103/4/2 104/4/2 106/4/2
f 101/4/2 105/4/2 107/4/2
f 106/4/2 104/4/2 108/4/2
f 101/4/2 107/4/2 109/4/2
f 109/4/2 107/4/2 110/4/2
f 108/4/2 104/4/2 111/4/2
f 111/4/2 104/4/2 112/4/2
f 109/5/2 110/5/2 113/5/2
f 113/5/2 110/5/2 114/5/2
f 111/5/2 112/5/2 115/5/2
f 115/5/2 112/5/2 116/5/2
f 117/6/2 118/6/2 121/6/2
f 119/6/2 120/6/2 121/6/2
f 118/6/2 119/6/2 121/6/2
f 121/6/2 120/6/2 122/6/2
f 117/6/2 121/6/2 123/6/2
f 121/5/2 122/5/2 123/5/2
f 122/6/2 120/6/2 124/6/2
f 123/5/2 122/5/2 124/5/2
f 117/6/2 123/6/2 125/6/2
f 123/6/2 124/6/2 125/6/2
f 124/6/2 120/6/2 126/6/2
f 125/6/2 124/6/2 126/6/2
f 127/7/2 128/7/2 129/7/2
f 129/7/2 128/7/2 130/7/2
f 129/3/2 130/3/2 131/3/2
f 131/3/2 130/3/2 132/3/2
f 132/3/2 130/3/2 133/3/2
f 133/3/2 130/3/2 134/3/2
f 131/1/2 132/1/2 135/1/2
f 132/3/2 133/3/2 136/3/2
f 135/1/2 132/1/2 136/1/2
f 133/1/2 134/1/2 137/1/2
f 136/3/2 133/3/2 137/3/2
f 137/1/2 134/1/2 138/1/2
f 141/3/3 140/3/3 139/3/3
f 142/3/3 140/3/3 141/3/3
f 146/4/3 144/4/3 143/4/3
f 147/5/3 145/5/3 144/5/3
f 147/4/3 144/4/3 146/4/3
f 148/4/3 146/4/3 143/4/3
f 148/6/3 147/6/3 146/6/3
f 149/5/3 145/5/3 147/5/3
f 149/6/3 147/6/3 148/6/3
f 150/4/3 148/4/3 143/4/3
f 150/4/3 149/4/3 148/4/3
f 151/5/3 145/5/3 149/5/3
f 151/4/3 149/4/3 150/4/3
f 152/5/3 145/5/3 151/5/3
f 156/4/3 154/4/3 153/4/3
f 157/5/3 155/5/3 154/5/3
f 157/4/3 154/4/3 156/4/3
f 158/4/3 156/4/3 153/4/3
f 158/6/3 157/6/3 156/6/3
f 159/5/3 155/5/3 157/5/3
f 159/6/3 157/6/3 158/6/3
f 160/4/3 158/4/3 153/4/3
f 160/4/3 159/4/3 158/4/3
f 161/5/3 155/5/3 159/5/3
f 161/4/3 159/4/3 160/4/3
f 162/5/3 155/5/3 161/5/3
f 167/7/3 164/7/3 163/7/3
f 168/3/3 165/3/3 164/3/3
f 168/7/3 164/7/3 167/7/3
f 169/1/3 166/1/3 165/1/3
f 169/3/3 165/3/3 168/3/3
f 170/1/3 166/1/3 169/1/3
f 174/1/3 166/1/3 170/1/3
f 175/1/3 166/1/3 174/1/3
f 175/1/3 174/1/3 173/1/3
f 176/1/3 166/1/3 175/1/3
f 177/1/3 175/1/3 173/1/3
f 179/7/3 172/7/3 171/7/3
f 180/3/3 173/3/3 172/3/3
f 180/7/3 172/7/3 179/7/3
f 181/1/3 178/1/3 177/1/3
f 181/3/3 173/3/3 180/3/3
f 181/1/3 177/1/3 173/1/3
f 182/1/3 178/1/3 181/1/3
f 186/1/3 178/1/3 182/1/3
f 187/7/3 184/7/3 183/7/3
f 188/3/3 185/3/3 184/3/3
f 188/7/3 184/7/3 187/7/3
f 189/1/3 186/1/3 185/1/3
f 189/3/3 185/3/3 188/3/3
f 190/1/3 178/1/3 186/1/3
f 190/1/3 186/1/3 189/1/3
f 193/6/3 192/6/3 191/6/3
f 194/6/3 192/6/3 193/6/3
f 195/5/3 194/5/3 193/5/3
f 196/6/3 192/6/3 194/6/3
f 196/5/3 194/5/3 195/5/3
f 197/6/3 196/6/3 195/6/3
f 198/6/3 192/6/3 196/6/3
f 198/6/3 196/6/3 197/6/3
f 199/5/3 198/5/3 197/5/3
f 200/5/3 198/5/3 199/5/3
f 201/6/3 192/6/3 198/6/3
f 201/5/3 198/5/3 200/5/3
f 202/6/3 201/6/3 200/6/3
f 203/6/3 192/6/3 201/6/3
f 203/6/3 201/6/3 202/6/3
f 206/1/3 205/1/3 204/1/3
f 207/1/3 205/1/3 206/1/3
f 208/3/3 207/3/3 206/3/3
f 209/3/3 207/3/3 208/3/3
f 212/4/3 211/4/3 210/4/3
f 213/4/3 211/4/3 212/4/3
f 216/4/3 215/4/3 214/4/3
f 217/4/3 215/4/3 216/4/3
f 218/4/4 219/4/4 220/4/4
f 220/4/4 219/4/4 221/4/4
f 222/4/4 223/4/4 224/4/4
f 224/4/4 223/4/4 225/4/4
f 226/1/4 227/1/4 228/1/4
f 228/1/4 227/1/4 229/1/4
f 228/3/4 229/3/4 230/3/4
f 230/3/4 229/3/4 231/3/4
f 232/6/4 233/6/4 234/6/4
f 234/6/4 233/6/4 235/6/4
f 234/5/4 235/5/4 236/5/4
f 235/6/4 233/6/4 237/6/4
f 236/5/4 235/5/4 237/5/4
f 236/6/4 237/6/4 238/6/4
f 237/6/4 233/6/4 239/6/4
f 238/6/4 237/6/4 239/6/4
f 238/5/4 239/5/4 240/5/4
f 240/5/4 239/5/4 241/5/4
f 239/6/4 233/6/4 242/6/4
f 241/5/4 239/5/4 242/5/4
f 241/6/4 242/6/4 243/6/4
f 242/6/4 233/6/4 244/6/4
f 243/6/4 242/6/4 244/6/4
f 245/7/4 246/7/4 249/7/4
f 246/3/4 247/3/4 250/3/4
f 249/7/4 246/7/4 250/7/4
f 247/1/4 248/1/4 251/1/4
f 250/3/4 247/3/4 251/3/4
f 251/1/4 248/1/4 252/1/4
f 252/1/4 248/1/4 256/1/4
f 256/1/4 248/1/4 257/1/4
f 255/1/4 256/1/4 257/1/4
f 257/1/4 248/1/4 258/1/4
f 255/1/4 257/1/4 259/1/4
f 253/7/4 254/7/4 261/7/4
f 254/3/4 255/3/4 262/3/4
f 261/7/4 254/7/4 262/7/4
f 259/1/4 260/1/4 263/1/4
f 262/3/4 255/3/4 263/3/4
f 255/1/4 259/1/4 263/1/4
f 263/1/4 260/1/4 264/1/4
f 264/1/4 260/1/4 268/1/4
f 265/7/4 266/7/4 269/7/4
f 266/3/4 267/3/4 270/3/4
f 269/7/4 266/7/4 270/7/4
f 267/1/4 268/1/4 271/1/4
f 270/3/4 267/3/4 271/3/4
f 268/1/4 260/1/4 272/1/4
f 271/1/4 268/1/4 272/1/4
f 273/4/4 274/4/4 276/4/4
f 274/5/4 275/5/4 277/5/4
f 276/4/4 274/4/4 277/4/4
f 273/4/4 276/4/4 278/4/4
f 276/6/4 277/6/4 278/6/4
f 277/5/4 275/5/4 279/5/4
f 278/6/4 277/6/4 279/6/4
f 273/4/4 278/4/4 280/4/4
f 278/4/4 279/4/4 280/4/4
f 279/5/4 275/5/4 281/5/4
f 280/4/4 279/4/4 281/4/4
f 281/5/4 275/5/4 282/5/4
f 283/4/4 284/4/4 286/4/4
f 284/5/4 285/5/4 287/5/4
f 286/4/4 284/4/4 287/4/4
f 283/4/4 286/4/4 288/4/4
f 286/6/4 287/6/4 288/6/4
f 287/5/4 285/5/4 289/5/4
f 288/6/4 287/6/4 289/6/4
f 283/4/4 288/4/4 290/4/4
f 288/4/4 289/4/4 290/4/4
f 289/5/4 285/5/4 291/5/4
f 290/4/4 289/4/4 291/4/4
f 291/5/4 285/5/4 292/5/4
f 293/3/4 294/3/4 295/3/4
f 295/3/4 294/3/4 296/3/4
f 301/4/5 298/4/5 297/4/5
f 302/4/5 298/4/5 301/4/5
f 303/4/5 300/4/5 299/4/5
f 304/4/5 300/4/5 303/4/5
f 309/4/5 306/4/5 305/4/5
f 310/4/5 306/4/5 309/4/5
f 311/4/5 308/4/5 307/4/5
f 312/4/5 308/4/5 311/4/5
f 319/7/5 314/7/5 313/7/5
f 320/1/5 315/1/5 314/1/5
f 320/7/5 314/7/5 319/7/5
f 321/7/5 316/7/5 315/7/5
f 321/1/5 315/1/5 320/1/5
f 322/1/5 317/1/5 316/1/5
f 322/7/5 316/7/5 321/7/5
f 323/7/5 318/7/5 317/7/5
f 323/1/5 317/1/5 322/1/5
f 324/7/5 318/7/5 323/7/5
f 325/1/5 322/1/5 321/1/5
f 325/7/5 319/7/5 313/7/5
f 325/1/5 324/1/5 323/1/5
f 325/1/5 323/1/5 322/1/5
f 325/1/5 321/1/5 320/1/5
f 325/1/5 320/1/5 319/1/5
f 326/1/5 324/1/5 325/1/5
f 327/1/5 324/1/5 326/1/5
f 328/1/5 324/1/5 327/1/5
f 329/1/5 324/1/5 328/1/5
f 330/7/5 318/7/5 324/7/5
f 330/1/5 324/1/5 329/1/5
f 331/7/5 325/7/5 313/7/5
f 331/7/5 326/7/5 325/7/5
f 332/1/5 327/1/5 326/1/5
f 332/7/5 326/7/5 331/7/5
f 333/7/5 328/7/5 327/7/5
f 333/1/5 327/1/5 332/1/5
f 334/1/5 329/1/5 328/1/5
f 334/7/5 328/7/5 333/7/5
f 335/7/5 330/7/5 329/7/5
f 335/1/5 329/1/5 334/1/5
f 336/7/5 318/7/5 330/7/5
f 336/7/5 330/7/5 335/7/5
f 339/3/5 338/3/5 337/3/5
f 340/3/5 338/3/5 339/3/5
f 343/3/5 342/3/5 341/3/5
f 344/3/5 342/3/5 343/3/5
f 345/5/6 346/5/6 349/5/6
f 349/5/6 346/5/6 350/5/6
f 347/5/6 348/5/6 351/5/6
f 351/5/6 348/5/6 352/5/6
f 353/5/6 354/5/6 357/5/6
f 357/5/6 354/5/6 358/5/6
f 355/5/6 356/5/6 359/5/6
f 359/5/6 356/5/6 360/5/6
f 361/3/6 362/3/6 364/3/6
f 364/3/6 362/3/6 365/3/6
f 363/1/6 364/1/6 367/1/6
f 365/1/6 366/1/6 367/1/6
f 364/1/6 365/1/6 367/1/6
f 367/1/6 366/1/6 368/1/6
f 363/1/6 367/1/6 369/1/6
f 369/1/6 367/1/6 370/1/6
f 370/1/6 367/1/6 371/1/6
f 371/1/6 367/1/6 372/1/6
f 367/5/6 368/5/6 373/5/6
f 372/1/6 367/1/6 373/1/6
f 368/1/6 366/1/6 374/1/6
f 373/5/6 368/5/6 374/5/6
f 374/1/6 366/1/6 375/1/6
f 363/1/6 369/1/6 376/1/6
f 363/1/6 376/1/6 377/1/6
f 377/1/6 376/1/6 378/1/6
f 375/1/6 366/1/6 379/1/6
f 379/1/6 366/1/6 380/1/6
f 377/3/6 378/3/6 381/3/6
f 381/3/6 378/3/6 382/3/6
f 379/3/6 380/3/6 383/3/6
f 383/3/6 380/3/6 384/3/6
f 381/1/6 382/1/6 385/1/6
f 381/1/6 385/1/6 386/1/6
f 383/1/6 384/1/6 392/1/6
f 390/5/6 391/5/6 393/5/6
f 386/1/6 387/1/6 393/1/6
f 387/1/6 388/1/6 393/1/6
f 388/1/6 389/1/6 393/1/6
f 389/1/6 390/1/6 393/1/6
f 391/1/6 392/1/6 394/1/6
f 393/5/6 391/5/6 394/5/6
f 386/1/6 393/1/6 395/1/6
f 381/1/6 386/1/6 395/1/6
f 393/1/6 394/1/6 395/1/6
f 395/1/6 394/1/6 396/1/6
f 396/1/6 394/1/6 397/1/6
f 394/1/6 392/1/6 398/1/6
f 397/1/6 394/1/6 398/1/6
f 392/1/6 384/1/6 398/1/6
f 396/3/6 397/3/6 399/3/6
f 399/3/6 397/3/6 400/3/6
f 401/6/6 402/6/6 403/6/6
f 403/6/6 402/6/6 404/6/6
f 404/6/6 402/6/6 405/6/6
f 401/6/6 403/6/6 406/6/6
f 405/6/6 402/6/6 408/6/6
f 406/6/6 407/6/6 409/6/6
f 407/6/6 408/6/6 409/6/6
f 401/6/6 406/6/6 409/6/6
f 408/6/6 402/6/6 410/6/6
f 409/6/6 408/6/6 410/6/6
f 411/1/6 412/1/6 414/1/6
f 412/3/6 413/3/6 415/3/6
f 414/1/6 412/1/6 415/1/6
f 415/3/6 413/3/6 416/3/6
