# MagicaVoxel @ Ephtracy

# group
o 

# material
mtllib xengantim.mtl
usemtl palette

# normals
vn -1 0 0
vn 1 0 0
vn 0 0 1
vn 0 0 -1
vn 0 -1 0
vn 0 1 0

# texcoords
vt 0.0878906 0.5
vt 0.0917969 0.5
vt 0.115234 0.5
vt 0.212891 0.5
vt 0.376953 0.5
vt 0.876953 0.5
vt 0.955078 0.5
vt 0.958984 0.5
vt 0.978516 0.5

# verts
v 0.6 2.1 -1.4
v 0.6 2.1 -2.6
v 0.6 2.2 -1.4
v 0.6 2.2 -2.6
v 0.6 2.3 -1.4
v 0.6 2.3 -1.6
v 0.6 2.3 -1.8
v 0.6 2.3 -2.2
v 0.6 2.3 -2.4
v 0.6 2.3 -2.6
v 0.6 2.5 -1.6
v 0.6 2.5 -1.8
v 0.6 2.5 -2.2
v 0.6 2.5 -2.4
v 0.6 2.6 -1.4
v 0.6 2.6 -1.8
v 0.6 2.6 -2.2
v 0.6 2.6 -2.6
v 0.9 2 -1.3
v 0.9 2 -1.4
v 0.9 2 -2.6
v 0.9 2 -2.7
v 0.9 2.1 -1.4
v 0.9 2.1 -2.6
v 0.9 2.2 -1.4
v 0.9 2.2 -2.6
v 0.9 2.3 -1.3
v 0.9 2.3 -1.4
v 0.9 2.3 -2.6
v 0.9 2.3 -2.7
v 0.9 2.4 -1.3
v 0.9 2.4 -1.4
v 0.9 2.4 -2.6
v 0.9 2.4 -2.7
v 1.6 2.4 -1.2
v 1.6 2.4 -1.4
v 1.6 2.4 -2.6
v 1.6 2.4 -2.8
v 1.6 2.6 -1.2
v 1.6 2.6 -1.4
v 1.6 2.6 -1.6
v 1.6 2.6 -1.7
v 1.6 2.6 -1.8
v 1.6 2.6 -2.2
v 1.6 2.6 -2.3
v 1.6 2.6 -2.4
v 1.6 2.6 -2.6
v 1.6 2.6 -2.8
v 1.6 3 -1.7
v 1.6 3 -2.3
v 1.6 3.2 -1.6
v 1.6 3.2 -2.4
v 2.7 2 -1.3
v 2.7 2 -1.4
v 2.7 2 -2.6
v 2.7 2 -2.7
v 2.7 2.1 -1.4
v 2.7 2.1 -2.6
v 2.7 2.2 -1.4
v 2.7 2.2 -2.6
v 2.7 2.3 -1.3
v 2.7 2.3 -1.4
v 2.7 2.3 -2.6
v 2.7 2.3 -2.7
v 2.7 2.4 -1.3
v 2.7 2.4 -1.4
v 2.7 2.4 -2.6
v 2.7 2.4 -2.7
v 1.3 2 -1.3
v 1.3 2 -1.4
v 1.3 2 -2.6
v 1.3 2 -2.7
v 1.3 2.1 -1.4
v 1.3 2.1 -2.6
v 1.3 2.2 -1.4
v 1.3 2.2 -2.6
v 1.3 2.3 -1.3
v 1.3 2.3 -1.4
v 1.3 2.3 -2.6
v 1.3 2.3 -2.7
v 1.3 2.4 -1.3
v 1.3 2.4 -1.4
v 1.3 2.4 -2.6
v 1.3 2.4 -2.7
v 2 2.4 -1.2
v 2 2.4 -1.4
v 2 2.4 -2.6
v 2 2.4 -2.8
v 2 2.6 -1.2
v 2 2.6 -1.4
v 2 2.6 -2.6
v 2 2.6 -2.8
v 3.1 2 -1.3
v 3.1 2 -1.4
v 3.1 2 -2.6
v 3.1 2 -2.7
v 3.1 2.1 -1.4
v 3.1 2.1 -2.6
v 3.1 2.2 -1.4
v 3.1 2.2 -2.6
v 3.1 2.3 -1.3
v 3.1 2.3 -1.4
v 3.1 2.3 -2.6
v 3.1 2.3 -2.7
v 3.1 2.4 -1.3
v 3.1 2.4 -1.4
v 3.1 2.4 -2.6
v 3.1 2.4 -2.7
v 3.1 2.6 -1.6
v 3.1 2.6 -1.8
v 3.1 2.6 -2.2
v 3.1 2.6 -2.4
v 3.1 2.7 -1.7
v 3.1 2.7 -2.3
v 3.1 3 -1.7
v 3.1 3 -2.3
v 3.1 3.2 -1.6
v 3.1 3.2 -2.4
v 3.5 2.1 -1.4
v 3.5 2.1 -2.6
v 3.5 2.2 -1.4
v 3.5 2.2 -2.6
v 3.5 2.3 -1.4
v 3.5 2.3 -1.8
v 3.5 2.3 -2.2
v 3.5 2.3 -2.6
v 3.5 2.6 -1.4
v 3.5 2.6 -1.8
v 3.5 2.6 -2.2
v 3.5 2.6 -2.6
v 1.6 2.4 -1.2
v 1.6 2.6 -1.2
v 2 2.4 -1.2
v 2 2.6 -1.2
v 0.9 2 -1.3
v 0.9 2.3 -1.3
v 0.9 2.4 -1.3
v 1 2.1 -1.3
v 1 2.3 -1.3
v 1.2 2.1 -1.3
v 1.2 2.3 -1.3
v 1.3 2 -1.3
v 1.3 2.3 -1.3
v 1.3 2.4 -1.3
v 2.7 2 -1.3
v 2.7 2.3 -1.3
v 2.7 2.4 -1.3
v 2.8 2.1 -1.3
v 2.8 2.3 -1.3
v 3 2.1 -1.3
v 3 2.3 -1.3
v 3.1 2 -1.3
v 3.1 2.3 -1.3
v 3.1 2.4 -1.3
v 0.6 2.1 -1.4
v 0.6 2.2 -1.4
v 0.6 2.3 -1.4
v 0.6 2.6 -1.4
v 0.9 2.1 -1.4
v 0.9 2.2 -1.4
v 0.9 2.3 -1.4
v 0.9 2.4 -1.4
v 1.3 2.1 -1.4
v 1.3 2.2 -1.4
v 1.3 2.3 -1.4
v 1.3 2.4 -1.4
v 1.6 2.4 -1.4
v 1.6 2.6 -1.4
v 2 2.4 -1.4
v 2 2.6 -1.4
v 2.7 2.1 -1.4
v 2.7 2.2 -1.4
v 2.7 2.3 -1.4
v 2.7 2.4 -1.4
v 3.1 2.1 -1.4
v 3.1 2.2 -1.4
v 3.1 2.3 -1.4
v 3.1 2.4 -1.4
v 3.5 2.1 -1.4
v 3.5 2.2 -1.4
v 3.5 2.3 -1.4
v 3.5 2.6 -1.4
v 1.6 2.6 -1.6
v 1.6 3.2 -1.6
v 1.8 2.6 -1.6
v 1.8 3 -1.6
v 2.6 2.6 -1.6
v 2.6 3 -1.6
v 2.7 2.6 -1.6
v 2.7 3 -1.6
v 3 2.6 -1.6
v 3 3 -1.6
v 3.1 2.6 -1.6
v 3.1 3.2 -1.6
v 0.9 2 -2.6
v 0.9 2.1 -2.6
v 1.3 2 -2.6
v 1.3 2.1 -2.6
v 2.7 2 -2.6
v 2.7 2.1 -2.6
v 3.1 2 -2.6
v 3.1 2.1 -2.6
v 0.9 2 -1.4
v 0.9 2.1 -1.4
v 1.3 2 -1.4
v 1.3 2.1 -1.4
v 2.7 2 -1.4
v 2.7 2.1 -1.4
v 3.1 2 -1.4
v 3.1 2.1 -1.4
v 1.6 2.6 -2.4
v 1.6 3.2 -2.4
v 1.8 2.6 -2.4
v 1.8 3 -2.4
v 2.6 2.6 -2.4
v 2.6 3 -2.4
v 2.7 2.6 -2.4
v 2.7 3 -2.4
v 3 2.6 -2.4
v 3 3 -2.4
v 3.1 2.6 -2.4
v 3.1 3.2 -2.4
v 0.6 2.1 -2.6
v 0.6 2.2 -2.6
v 0.6 2.3 -2.6
v 0.6 2.6 -2.6
v 0.9 2.1 -2.6
v 0.9 2.2 -2.6
v 0.9 2.3 -2.6
v 0.9 2.4 -2.6
v 1.3 2.1 -2.6
v 1.3 2.2 -2.6
v 1.3 2.3 -2.6
v 1.3 2.4 -2.6
v 1.6 2.4 -2.6
v 1.6 2.6 -2.6
v 2 2.4 -2.6
v 2 2.6 -2.6
v 2.7 2.1 -2.6
v 2.7 2.2 -2.6
v 2.7 2.3 -2.6
v 2.7 2.4 -2.6
v 3.1 2.1 -2.6
v 3.1 2.2 -2.6
v 3.1 2.3 -2.6
v 3.1 2.4 -2.6
v 3.5 2.1 -2.6
v 3.5 2.2 -2.6
v 3.5 2.3 -2.6
v 3.5 2.6 -2.6
v 0.9 2 -2.7
v 0.9 2.3 -2.7
v 0.9 2.4 -2.7
v 1 2.1 -2.7
v 1 2.3 -2.7
v 1.2 2.1 -2.7
v 1.2 2.3 -2.7
v 1.3 2 -2.7
v 1.3 2.3 -2.7
v 1.3 2.4 -2.7
v 2.7 2 -2.7
v 2.7 2.3 -2.7
v 2.7 2.4 -2.7
v 2.8 2.1 -2.7
v 2.8 2.3 -2.7
v 3 2.1 -2.7
v 3 2.3 -2.7
v 3.1 2 -2.7
v 3.1 2.3 -2.7
v 3.1 2.4 -2.7
v 1.6 2.4 -2.8
v 1.6 2.6 -2.8
v 2 2.4 -2.8
v 2 2.6 -2.8
v 0.9 2 -1.3
v 1.3 2 -1.3
v 2.7 2 -1.3
v 3.1 2 -1.3
v 0.9 2 -1.4
v 1.3 2 -1.4
v 2.7 2 -1.4
v 3.1 2 -1.4
v 0.9 2 -2.6
v 1.3 2 -2.6
v 2.7 2 -2.6
v 3.1 2 -2.6
v 0.9 2 -2.7
v 1.3 2 -2.7
v 2.7 2 -2.7
v 3.1 2 -2.7
v 0.6 2.1 -1.4
v 0.9 2.1 -1.4
v 1.3 2.1 -1.4
v 2.7 2.1 -1.4
v 3.1 2.1 -1.4
v 3.5 2.1 -1.4
v 0.7 2.1 -1.5
v 0.9 2.1 -1.5
v 1.3 2.1 -1.5
v 2.7 2.1 -1.5
v 3.1 2.1 -1.5
v 3.3 2.1 -1.5
v 0.7 2.1 -2.5
v 0.9 2.1 -2.5
v 1.3 2.1 -2.5
v 2.7 2.1 -2.5
v 3.1 2.1 -2.5
v 3.3 2.1 -2.5
v 0.6 2.1 -2.6
v 0.9 2.1 -2.6
v 1.3 2.1 -2.6
v 2.7 2.1 -2.6
v 3.1 2.1 -2.6
v 3.5 2.1 -2.6
v 1.6 2.4 -1.2
v 2 2.4 -1.2
v 1.6 2.4 -1.4
v 2 2.4 -1.4
v 1.6 2.4 -2.6
v 2 2.4 -2.6
v 1.6 2.4 -2.8
v 2 2.4 -2.8
v 0.9 2.4 -1.3
v 1.3 2.4 -1.3
v 2.7 2.4 -1.3
v 3.1 2.4 -1.3
v 0.9 2.4 -1.4
v 1.3 2.4 -1.4
v 2.7 2.4 -1.4
v 3.1 2.4 -1.4
v 0.9 2.4 -2.6
v 1.3 2.4 -2.6
v 2.7 2.4 -2.6
v 3.1 2.4 -2.6
v 0.9 2.4 -2.7
v 1.3 2.4 -2.7
v 2.7 2.4 -2.7
v 3.1 2.4 -2.7
v 1.6 2.6 -1.2
v 2 2.6 -1.2
v 0.6 2.6 -1.4
v 1.6 2.6 -1.4
v 2 2.6 -1.4
v 3.5 2.6 -1.4
v 1.6 2.6 -1.6
v 1.8 2.6 -1.6
v 2.6 2.6 -1.6
v 2.7 2.6 -1.6
v 3 2.6 -1.6
v 3.1 2.6 -1.6
v 1.6 2.6 -1.7
v 0.6 2.6 -1.8
v 1.6 2.6 -1.8
v 3.1 2.6 -1.8
v 3.5 2.6 -1.8
v 0.6 2.6 -2.2
v 1.6 2.6 -2.2
v 3.1 2.6 -2.2
v 3.5 2.6 -2.2
v 1.6 2.6 -2.3
v 1.6 2.6 -2.4
v 1.8 2.6 -2.4
v 2.6 2.6 -2.4
v 2.7 2.6 -2.4
v 3 2.6 -2.4
v 3.1 2.6 -2.4
v 0.6 2.6 -2.6
v 1.6 2.6 -2.6
v 2 2.6 -2.6
v 3.5 2.6 -2.6
v 1.6 2.6 -2.8
v 2 2.6 -2.8
v 1.6 3.2 -1.6
v 3.1 3.2 -1.6
v 1.6 3.2 -2.4
v 3.1 3.2 -2.4

# faces
f 3/9/1 2/9/1 1/9/1
f 4/9/1 2/9/1 3/9/1
f 5/5/1 4/5/1 3/5/1
f 6/5/1 4/5/1 5/5/1
f 7/5/1 4/5/1 6/5/1
f 8/5/1 4/5/1 7/5/1
f 9/5/1 4/5/1 8/5/1
f 10/5/1 4/5/1 9/5/1
f 11/4/1 6/4/1 5/4/1
f 11/8/1 7/8/1 6/8/1
f 12/5/1 8/5/1 7/5/1
f 12/8/1 7/8/1 11/8/1
f 13/8/1 9/8/1 8/8/1
f 13/5/1 8/5/1 12/5/1
f 14/4/1 10/4/1 9/4/1
f 14/8/1 9/8/1 13/8/1
f 15/4/1 11/4/1 5/4/1
f 15/4/1 12/4/1 11/4/1
f 16/5/1 13/5/1 12/5/1
f 16/4/1 12/4/1 15/4/1
f 17/4/1 14/4/1 13/4/1
f 17/5/1 13/5/1 16/5/1
f 18/4/1 10/4/1 14/4/1
f 18/4/1 14/4/1 17/4/1
f 23/6/1 20/6/1 19/6/1
f 24/6/1 22/6/1 21/6/1
f 25/6/1 23/6/1 19/6/1
f 26/6/1 22/6/1 24/6/1
f 27/6/1 25/6/1 19/6/1
f 28/6/1 25/6/1 27/6/1
f 29/6/1 22/6/1 26/6/1
f 30/6/1 22/6/1 29/6/1
f 31/7/1 28/7/1 27/7/1
f 32/7/1 28/7/1 31/7/1
f 33/7/1 30/7/1 29/7/1
f 34/7/1 30/7/1 33/7/1
f 39/5/1 36/5/1 35/5/1
f 40/5/1 36/5/1 39/5/1
f 47/5/1 38/5/1 37/5/1
f 48/5/1 38/5/1 47/5/1
f 49/8/1 42/8/1 41/8/1
f 49/7/1 43/7/1 42/7/1
f 49/7/1 45/7/1 44/7/1
f 49/7/1 44/7/1 43/7/1
f 50/8/1 46/8/1 45/8/1
f 50/7/1 45/7/1 49/7/1
f 51/8/1 49/8/1 41/8/1
f 51/8/1 50/8/1 49/8/1
f 52/8/1 46/8/1 50/8/1
f 52/8/1 50/8/1 51/8/1
f 57/6/1 54/6/1 53/6/1
f 58/6/1 56/6/1 55/6/1
f 59/6/1 57/6/1 53/6/1
f 60/6/1 56/6/1 58/6/1
f 61/6/1 59/6/1 53/6/1
f 62/6/1 59/6/1 61/6/1
f 63/6/1 56/6/1 60/6/1
f 64/6/1 56/6/1 63/6/1
f 65/7/1 62/7/1 61/7/1
f 66/7/1 62/7/1 65/7/1
f 67/7/1 64/7/1 63/7/1
f 68/7/1 64/7/1 67/7/1
f 69/6/2 70/6/2 73/6/2
f 71/6/2 72/6/2 74/6/2
f 69/6/2 73/6/2 75/6/2
f 74/6/2 72/6/2 76/6/2
f 69/6/2 75/6/2 77/6/2
f 77/6/2 75/6/2 78/6/2
f 76/6/2 72/6/2 79/6/2
f 79/6/2 72/6/2 80/6/2
f 77/7/2 78/7/2 81/7/2
f 81/7/2 78/7/2 82/7/2
f 79/7/2 80/7/2 83/7/2
f 83/7/2 80/7/2 84/7/2
f 85/5/2 86/5/2 89/5/2
f 89/5/2 86/5/2 90/5/2
f 87/5/2 88/5/2 91/5/2
f 91/5/2 88/5/2 92/5/2
f 93/6/2 94/6/2 97/6/2
f 95/6/2 96/6/2 98/6/2
f 93/6/2 97/6/2 99/6/2
f 98/6/2 96/6/2 100/6/2
f 93/6/2 99/6/2 101/6/2
f 101/6/2 99/6/2 102/6/2
f 100/6/2 96/6/2 103/6/2
f 103/6/2 96/6/2 104/6/2
f 101/7/2 102/7/2 105/7/2
f 105/7/2 102/7/2 106/7/2
f 103/7/2 104/7/2 107/7/2
f 107/7/2 104/7/2 108/7/2
f 109/8/2 110/8/2 113/8/2
f 111/8/2 112/8/2 113/8/2
f 110/8/2 111/8/2 113/8/2
f 113/8/2 112/8/2 114/8/2
f 109/8/2 113/8/2 115/8/2
f 113/7/2 114/7/2 115/7/2
f 114/8/2 112/8/2 116/8/2
f 115/7/2 114/7/2 116/7/2
f 109/8/2 115/8/2 117/8/2
f 115/8/2 116/8/2 117/8/2
f 116/8/2 112/8/2 118/8/2
f 117/8/2 116/8/2 118/8/2
f 119/9/2 120/9/2 121/9/2
f 121/9/2 120/9/2 122/9/2
f 121/5/2 122/5/2 123/5/2
f 123/5/2 122/5/2 124/5/2
f 124/5/2 122/5/2 125/5/2
f 125/5/2 122/5/2 126/5/2
f 123/4/2 124/4/2 127/4/2
f 124/5/2 125/5/2 128/5/2
f 127/4/2 124/4/2 128/4/2
f 125/4/2 126/4/2 129/4/2
f 128/5/2 125/5/2 129/5/2
f 129/4/2 126/4/2 130/4/2
f 133/5/3 132/5/3 131/5/3
f 134/5/3 132/5/3 133/5/3
f 138/6/3 136/6/3 135/6/3
f 139/7/3 137/7/3 136/7/3
f 139/6/3 136/6/3 138/6/3
f 140/6/3 138/6/3 135/6/3
f 140/8/3 139/8/3 138/8/3
f 141/7/3 137/7/3 139/7/3
f 141/8/3 139/8/3 140/8/3
f 142/6/3 140/6/3 135/6/3
f 142/6/3 141/6/3 140/6/3
f 143/7/3 137/7/3 141/7/3
f 143/6/3 141/6/3 142/6/3
f 144/7/3 137/7/3 143/7/3
f 148/6/3 146/6/3 145/6/3
f 149/7/3 147/7/3 146/7/3
f 149/6/3 146/6/3 148/6/3
f 150/6/3 148/6/3 145/6/3
f 150/8/3 149/8/3 148/8/3
f 151/7/3 147/7/3 149/7/3
f 151/8/3 149/8/3 150/8/3
f 152/6/3 150/6/3 145/6/3
f 152/6/3 151/6/3 150/6/3
f 153/7/3 147/7/3 151/7/3
f 153/6/3 151/6/3 152/6/3
f 154/7/3 147/7/3 153/7/3
f 159/9/3 156/9/3 155/9/3
f 160/5/3 157/5/3 156/5/3
f 160/9/3 156/9/3 159/9/3
f 161/4/3 158/4/3 157/4/3
f 161/5/3 157/5/3 160/5/3
f 162/4/3 158/4/3 161/4/3
f 166/4/3 158/4/3 162/4/3
f 167/4/3 158/4/3 166/4/3
f 167/4/3 166/4/3 165/4/3
f 168/4/3 158/4/3 167/4/3
f 169/4/3 167/4/3 165/4/3
f 171/9/3 164/9/3 163/9/3
f 172/5/3 165/5/3 164/5/3
f 172/9/3 164/9/3 171/9/3
f 173/4/3 170/4/3 169/4/3
f 173/5/3 165/5/3 172/5/3
f 173/4/3 169/4/3 165/4/3
f 174/4/3 170/4/3 173/4/3
f 178/4/3 170/4/3 174/4/3
f 179/9/3 176/9/3 175/9/3
f 180/5/3 177/5/3 176/5/3
f 180/9/3 176/9/3 179/9/3
f 181/4/3 178/4/3 177/4/3
f 181/5/3 177/5/3 180/5/3
f 182/4/3 170/4/3 178/4/3
f 182/4/3 178/4/3 181/4/3
f 185/8/3 184/8/3 183/8/3
f 186/8/3 184/8/3 185/8/3
f 187/7/3 186/7/3 185/7/3
f 188/8/3 184/8/3 186/8/3
f 188/7/3 186/7/3 187/7/3
f 189/8/3 188/8/3 187/8/3
f 190/8/3 184/8/3 188/8/3
f 190/8/3 188/8/3 189/8/3
f 191/7/3 190/7/3 189/7/3
f 192/8/3 184/8/3 190/8/3
f 192/7/3 190/7/3 191/7/3
f 193/8/3 192/8/3 191/8/3
f 194/8/3 184/8/3 192/8/3
f 194/8/3 192/8/3 193/8/3
f 197/6/3 196/6/3 195/6/3
f 198/6/3 196/6/3 197/6/3
f 201/6/3 200/6/3 199/6/3
f 202/6/3 200/6/3 201/6/3
f 203/6/4 204/6/4 205/6/4
f 205/6/4 204/6/4 206/6/4
f 207/6/4 208/6/4 209/6/4
f 209/6/4 208/6/4 210/6/4
f 211/8/4 212/8/4 213/8/4
f 213/8/4 212/8/4 214/8/4
f 213/7/4 214/7/4 215/7/4
f 214/8/4 212/8/4 216/8/4
f 215/7/4 214/7/4 216/7/4
f 215/8/4 216/8/4 217/8/4
f 216/8/4 212/8/4 218/8/4
f 217/8/4 216/8/4 218/8/4
f 217/7/4 218/7/4 219/7/4
f 218/8/4 212/8/4 220/8/4
f 219/7/4 218/7/4 220/7/4
f 219/8/4 220/8/4 221/8/4
f 220/8/4 212/8/4 222/8/4
f 221/8/4 220/8/4 222/8/4
f 223/9/4 224/9/4 227/9/4
f 224/5/4 225/5/4 228/5/4
f 227/9/4 224/9/4 228/9/4
f 225/4/4 226/4/4 229/4/4
f 228/5/4 225/5/4 229/5/4
f 229/4/4 226/4/4 230/4/4
f 230/4/4 226/4/4 234/4/4
f 234/4/4 226/4/4 235/4/4
f 233/4/4 234/4/4 235/4/4
f 235/4/4 226/4/4 236/4/4
f 233/4/4 235/4/4 237/4/4
f 231/9/4 232/9/4 239/9/4
f 232/5/4 233/5/4 240/5/4
f 239/9/4 232/9/4 240/9/4
f 237/4/4 238/4/4 241/4/4
f 240/5/4 233/5/4 241/5/4
f 233/4/4 237/4/4 241/4/4
f 241/4/4 238/4/4 242/4/4
f 242/4/4 238/4/4 246/4/4
f 243/9/4 244/9/4 247/9/4
f 244/5/4 245/5/4 248/5/4
f 247/9/4 244/9/4 248/9/4
f 245/4/4 246/4/4 249/4/4
f 248/5/4 245/5/4 249/5/4
f 246/4/4 238/4/4 250/4/4
f 249/4/4 246/4/4 250/4/4
f 251/6/4 252/6/4 254/6/4
f 252/7/4 253/7/4 255/7/4
f 254/6/4 252/6/4 255/6/4
f 251/6/4 254/6/4 256/6/4
f 254/8/4 255/8/4 256/8/4
f 255/7/4 253/7/4 257/7/4
f 256/8/4 255/8/4 257/8/4
f 251/6/4 256/6/4 258/6/4
f 256/6/4 257/6/4 258/6/4
f 257/7/4 253/7/4 259/7/4
f 258/6/4 257/6/4 259/6/4
f 259/7/4 253/7/4 260/7/4
f 261/6/4 262/6/4 264/6/4
f 262/7/4 263/7/4 265/7/4
f 264/6/4 262/6/4 265/6/4
f 261/6/4 264/6/4 266/6/4
f 264/8/4 265/8/4 266/8/4
f 265/7/4 263/7/4 267/7/4
f 266/8/4 265/8/4 267/8/4
f 261/6/4 266/6/4 268/6/4
f 266/6/4 267/6/4 268/6/4
f 267/7/4 263/7/4 269/7/4
f 268/6/4 267/6/4 269/6/4
f 269/7/4 263/7/4 270/7/4
f 271/5/4 272/5/4 273/5/4
f 273/5/4 272/5/4 274/5/4
f 279/6/5 276/6/5 275/6/5
f 280/6/5 276/6/5 279/6/5
f 281/6/5 278/6/5 277/6/5
f 282/6/5 278/6/5 281/6/5
f 287/6/5 284/6/5 283/6/5
f 288/6/5 284/6/5 287/6/5
f 289/6/5 286/6/5 285/6/5
f 290/6/5 286/6/5 289/6/5
f 297/9/5 292/9/5 291/9/5
f 298/4/5 293/4/5 292/4/5
f 298/9/5 292/9/5 297/9/5
f 299/9/5 294/9/5 293/9/5
f 299/4/5 293/4/5 298/4/5
f 300/4/5 295/4/5 294/4/5
f 300/9/5 294/9/5 299/9/5
f 301/9/5 296/9/5 295/9/5
f 301/4/5 295/4/5 300/4/5
f 302/9/5 296/9/5 301/9/5
f 303/4/5 300/4/5 299/4/5
f 303/9/5 297/9/5 291/9/5
f 303/4/5 302/4/5 301/4/5
f 303/4/5 301/4/5 300/4/5
f 303/4/5 299/4/5 298/4/5
f 303/4/5 298/4/5 297/4/5
f 304/4/5 302/4/5 303/4/5
f 305/4/5 302/4/5 304/4/5
f 306/4/5 302/4/5 305/4/5
f 307/4/5 302/4/5 306/4/5
f 308/9/5 296/9/5 302/9/5
f 308/4/5 302/4/5 307/4/5
f 309/9/5 303/9/5 291/9/5
f 309/9/5 304/9/5 303/9/5
f 310/4/5 305/4/5 304/4/5
f 310/9/5 304/9/5 309/9/5
f 311/9/5 306/9/5 305/9/5
f 311/4/5 305/4/5 310/4/5
f 312/4/5 307/4/5 306/4/5
f 312/9/5 306/9/5 311/9/5
f 313/9/5 308/9/5 307/9/5
f 313/4/5 307/4/5 312/4/5
f 314/9/5 296/9/5 308/9/5
f 314/9/5 308/9/5 313/9/5
f 317/5/5 316/5/5 315/5/5
f 318/5/5 316/5/5 317/5/5
f 321/5/5 320/5/5 319/5/5
f 322/5/5 320/5/5 321/5/5
f 323/7/6 324/7/6 327/7/6
f 327/7/6 324/7/6 328/7/6
f 325/7/6 326/7/6 329/7/6
f 329/7/6 326/7/6 330/7/6
f 331/7/6 332/7/6 335/7/6
f 335/7/6 332/7/6 336/7/6
f 333/7/6 334/7/6 337/7/6
f 337/7/6 334/7/6 338/7/6
f 339/5/6 340/5/6 342/5/6
f 342/5/6 340/5/6 343/5/6
f 341/4/6 342/4/6 345/4/6
f 343/4/6 344/4/6 345/4/6
f 342/4/6 343/4/6 345/4/6
f 345/4/6 344/4/6 346/4/6
f 346/4/6 344/4/6 347/4/6
f 347/4/6 344/4/6 348/4/6
f 348/4/6 344/4/6 349/4/6
f 349/4/6 344/4/6 350/4/6
f 341/4/6 345/4/6 351/4/6
f 341/4/6 351/4/6 352/4/6
f 352/4/6 351/4/6 353/4/6
f 350/4/6 344/4/6 354/4/6
f 354/4/6 344/4/6 355/4/6
f 352/5/6 353/5/6 356/5/6
f 356/5/6 353/5/6 357/5/6
f 354/5/6 355/5/6 358/5/6
f 358/5/6 355/5/6 359/5/6
f 356/4/6 357/4/6 360/4/6
f 356/4/6 360/4/6 361/4/6
f 358/4/6 359/4/6 366/4/6
f 364/4/6 365/4/6 367/4/6
f 365/4/6 366/4/6 367/4/6
f 356/4/6 361/4/6 367/4/6
f 361/4/6 362/4/6 367/4/6
f 363/4/6 364/4/6 367/4/6
f 362/4/6 363/4/6 367/4/6
f 367/4/6 366/4/6 368/4/6
f 368/4/6 366/4/6 369/4/6
f 366/4/6 359/4/6 370/4/6
f 369/4/6 366/4/6 370/4/6
f 368/5/6 369/5/6 371/5/6
f 371/5/6 369/5/6 372/5/6
f 373/8/6 374/8/6 375/8/6
f 375/8/6 374/8/6 376/8/6
