# MagicaVoxel @ Ephtracy

# group
o 

# material
mtllib left leg.mtl
usemtl palette

# normals
vn -1 0 0
vn 1 0 0
vn 0 0 1
vn 0 0 -1
vn 0 -1 0
vn 0 1 0

# texcoords
vt 0.787109 0.5
vt 0.791016 0.5
vt 0.794922 0.5
vt 0.880859 0.5

# verts
v 0.1 0.2 0.1
v 0.1 0.2 -0.1
v 0.1 0.3 0.2
v 0.1 0.3 0.1
v 0.1 0.4 -0.1
v 0.1 0.4 -0.2
v 0.1 0.5 0.2
v 0.1 0.5 -0.2
v 0.2 0 0.4
v 0.2 0 -0.1
v 0.2 0.2 0.4
v 0.2 0.2 0.3
v 0.2 0.2 0.1
v 0.2 0.2 -0.1
v 0.2 0.2 -0.2
v 0.2 0.3 0.2
v 0.2 0.3 0.1
v 0.2 0.3 -0.2
v 0.2 0.3 -0.3
v 0.2 0.4 -0.1
v 0.2 0.4 -0.2
v 0.2 0.5 0.3
v 0.2 0.5 0.2
v 0.2 0.5 -0.2
v 0.2 0.5 -0.3
v 0.3 0 -0.1
v 0.3 0 -0.2
v 0.3 0.2 -0.1
v 0.3 0.2 -0.2
v 0.3 0.2 -0.3
v 0.3 0.3 -0.2
v 0.3 0.3 -0.3
v 0.5 0 -0.1
v 0.5 0 -0.2
v 0.5 0.1 -0.1
v 0.5 0.1 -0.2
v 0.5 0.2 0.3
v 0.5 0.2 0.2
v 0.5 0.3 0.3
v 0.5 0.3 0.2
v 0.6 0 0.4
v 0.6 0 -0.1
v 0.6 0.1 -0.1
v 0.6 0.1 -0.2
v 0.6 0.2 0.4
v 0.6 0.2 0.2
v 0.6 0.2 0
v 0.6 0.2 -0.2
v 0.6 0.2 -0.3
v 0.6 0.3 0.3
v 0.6 0.3 0.2
v 0.6 0.3 0
v 0.6 0.5 0.3
v 0.6 0.5 0.2
v 0.6 0.5 -0.2
v 0.6 0.5 -0.3
v 0.7 0.2 0
v 0.7 0.2 -0.2
v 0.7 0.3 0.2
v 0.7 0.3 0
v 0.7 0.5 0.2
v 0.7 0.5 -0.2
v 0.2 0 0.4
v 0.2 0.2 0.4
v 0.6 0 0.4
v 0.6 0.2 0.4
v 0.2 0.2 0.3
v 0.2 0.5 0.3
v 0.5 0.2 0.3
v 0.5 0.3 0.3
v 0.6 0.3 0.3
v 0.6 0.5 0.3
v 0.1 0.3 0.2
v 0.1 0.5 0.2
v 0.2 0.3 0.2
v 0.2 0.5 0.2
v 0.5 0.2 0.2
v 0.5 0.3 0.2
v 0.6 0.2 0.2
v 0.6 0.3 0.2
v 0.6 0.5 0.2
v 0.7 0.3 0.2
v 0.7 0.5 0.2
v 0.1 0.2 0.1
v 0.1 0.3 0.1
v 0.2 0.2 0.1
v 0.2 0.3 0.1
v 0.6 0.2 0
v 0.6 0.3 0
v 0.7 0.2 0
v 0.7 0.3 0
v 0.1 0.2 -0.1
v 0.1 0.4 -0.1
v 0.2 0 -0.1
v 0.2 0.2 -0.1
v 0.2 0.4 -0.1
v 0.3 0 -0.1
v 0.3 0.2 -0.1
v 0.5 0 -0.1
v 0.5 0.1 -0.1
v 0.6 0 -0.1
v 0.6 0.1 -0.1
v 0.1 0.4 -0.2
v 0.1 0.5 -0.2
v 0.2 0.2 -0.2
v 0.2 0.3 -0.2
v 0.2 0.4 -0.2
v 0.2 0.5 -0.2
v 0.3 0 -0.2
v 0.3 0.2 -0.2
v 0.3 0.3 -0.2
v 0.5 0 -0.2
v 0.5 0.1 -0.2
v 0.6 0.1 -0.2
v 0.6 0.2 -0.2
v 0.6 0.5 -0.2
v 0.7 0.2 -0.2
v 0.7 0.5 -0.2
v 0.2 0.3 -0.3
v 0.2 0.5 -0.3
v 0.3 0.2 -0.3
v 0.3 0.3 -0.3
v 0.6 0.2 -0.3
v 0.6 0.5 -0.3
v 0.2 0 0.4
v 0.6 0 0.4
v 0.2 0 -0.1
v 0.3 0 -0.1
v 0.5 0 -0.1
v 0.6 0 -0.1
v 0.3 0 -0.2
v 0.5 0 -0.2
v 0.5 0.1 -0.1
v 0.6 0.1 -0.1
v 0.5 0.1 -0.2
v 0.6 0.1 -0.2
v 0.1 0.2 0.1
v 0.2 0.2 0.1
v 0.6 0.2 0
v 0.7 0.2 0
v 0.1 0.2 -0.1
v 0.2 0.2 -0.1
v 0.3 0.2 -0.1
v 0.2 0.2 -0.2
v 0.3 0.2 -0.2
v 0.6 0.2 -0.2
v 0.7 0.2 -0.2
v 0.3 0.2 -0.3
v 0.6 0.2 -0.3
v 0.5 0.3 0.3
v 0.6 0.3 0.3
v 0.1 0.3 0.2
v 0.2 0.3 0.2
v 0.5 0.3 0.2
v 0.6 0.3 0.2
v 0.7 0.3 0.2
v 0.1 0.3 0.1
v 0.2 0.3 0.1
v 0.6 0.3 0
v 0.7 0.3 0
v 0.2 0.3 -0.2
v 0.3 0.3 -0.2
v 0.2 0.3 -0.3
v 0.3 0.3 -0.3
v 0.1 0.4 -0.1
v 0.2 0.4 -0.1
v 0.1 0.4 -0.2
v 0.2 0.4 -0.2
v 0.2 0.2 0.4
v 0.6 0.2 0.4
v 0.2 0.2 0.3
v 0.5 0.2 0.3
v 0.5 0.2 0.2
v 0.6 0.2 0.2
v 0.2 0.5 0.3
v 0.6 0.5 0.3
v 0.1 0.5 0.2
v 0.2 0.5 0.2
v 0.6 0.5 0.2
v 0.7 0.5 0.2
v 0.1 0.5 -0.2
v 0.2 0.5 -0.2
v 0.6 0.5 -0.2
v 0.7 0.5 -0.2
v 0.2 0.5 -0.3
v 0.6 0.5 -0.3

# faces
f 4/3/1 2/3/1 1/3/1
f 5/3/1 2/3/1 4/3/1
f 5/3/1 4/3/1 3/3/1
f 7/3/1 5/3/1 3/3/1
f 7/3/1 6/3/1 5/3/1
f 8/3/1 6/3/1 7/3/1
f 11/1/1 10/1/1 9/1/1
f 12/1/1 10/1/1 11/1/1
f 13/1/1 10/1/1 12/1/1
f 14/1/1 10/1/1 13/1/1
f 16/3/1 13/3/1 12/3/1
f 17/3/1 13/3/1 16/3/1
f 18/3/1 15/3/1 14/3/1
f 20/3/1 19/3/1 18/3/1
f 20/3/1 18/3/1 14/3/1
f 21/3/1 19/3/1 20/3/1
f 22/3/1 16/3/1 12/3/1
f 23/3/1 16/3/1 22/3/1
f 24/3/1 19/3/1 21/3/1
f 25/3/1 19/3/1 24/3/1
f 28/1/1 27/1/1 26/1/1
f 29/1/1 27/1/1 28/1/1
f 31/3/1 30/3/1 29/3/1
f 32/3/1 30/3/1 31/3/1
f 33/1/2 34/1/2 35/1/2
f 35/1/2 34/1/2 36/1/2
f 37/3/2 38/3/2 39/3/2
f 39/3/2 38/3/2 40/3/2
f 41/1/2 42/1/2 43/1/2
f 41/1/2 43/1/2 45/1/2
f 43/1/2 44/1/2 45/1/2
f 45/1/2 44/1/2 46/1/2
f 46/1/2 44/1/2 47/1/2
f 47/1/2 44/1/2 48/1/2
f 46/3/2 47/3/2 51/3/2
f 51/3/2 47/3/2 52/3/2
f 50/3/2 51/3/2 53/3/2
f 53/3/2 51/3/2 54/3/2
f 48/3/2 49/3/2 55/3/2
f 55/3/2 49/3/2 56/3/2
f 57/3/2 58/3/2 60/3/2
f 59/3/2 60/3/2 61/3/2
f 60/3/2 58/3/2 62/3/2
f 61/3/2 60/3/2 62/3/2
f 65/1/3 64/1/3 63/1/3
f 66/1/3 64/1/3 65/1/3
f 69/3/3 68/3/3 67/3/3
f 70/3/3 68/3/3 69/3/3
f 71/3/3 68/3/3 70/3/3
f 72/3/3 68/3/3 71/3/3
f 75/3/3 74/3/3 73/3/3
f 76/3/3 74/3/3 75/3/3
f 79/3/3 78/3/3 77/3/3
f 80/3/3 78/3/3 79/3/3
f 82/3/3 81/3/3 80/3/3
f 83/3/3 81/3/3 82/3/3
f 86/3/3 85/3/3 84/3/3
f 87/3/3 85/3/3 86/3/3
f 90/3/3 89/3/3 88/3/3
f 91/3/3 89/3/3 90/3/3
f 92/3/4 93/3/4 95/3/4
f 95/3/4 93/3/4 96/3/4
f 94/1/4 95/1/4 97/1/4
f 97/1/4 95/1/4 98/1/4
f 99/1/4 100/1/4 101/1/4
f 101/1/4 100/1/4 102/1/4
f 103/3/4 104/3/4 107/3/4
f 107/3/4 104/3/4 108/3/4
f 105/3/4 106/3/4 110/3/4
f 110/3/4 106/3/4 111/3/4
f 109/1/4 110/1/4 112/1/4
f 112/1/4 110/1/4 113/1/4
f 113/1/4 110/1/4 114/1/4
f 114/1/4 110/1/4 115/1/4
f 115/3/4 116/3/4 117/3/4
f 117/3/4 116/3/4 118/3/4
f 119/3/4 120/3/4 122/3/4
f 121/3/4 122/3/4 123/3/4
f 122/3/4 120/3/4 124/3/4
f 123/3/4 122/3/4 124/3/4
f 127/1/5 126/1/5 125/1/5
f 128/1/5 126/1/5 127/1/5
f 129/1/5 126/1/5 128/1/5
f 130/1/5 126/1/5 129/1/5
f 131/1/5 129/1/5 128/1/5
f 132/1/5 129/1/5 131/1/5
f 135/1/5 134/1/5 133/1/5
f 136/1/5 134/1/5 135/1/5
f 141/3/5 138/3/5 137/3/5
f 142/3/5 138/3/5 141/3/5
f 144/3/5 143/3/5 142/3/5
f 145/3/5 143/3/5 144/3/5
f 146/3/5 140/3/5 139/3/5
f 147/3/5 140/3/5 146/3/5
f 148/3/5 146/3/5 145/3/5
f 149/3/5 146/3/5 148/3/5
f 154/3/5 151/3/5 150/3/5
f 155/3/5 151/3/5 154/3/5
f 157/3/5 153/3/5 152/3/5
f 158/3/5 153/3/5 157/3/5
f 159/3/5 156/3/5 155/3/5
f 160/3/5 156/3/5 159/3/5
f 163/3/5 162/3/5 161/3/5
f 164/3/5 162/3/5 163/3/5
f 167/3/5 166/3/5 165/3/5
f 168/3/5 166/3/5 167/3/5
f 169/1/6 170/1/6 171/1/6
f 171/1/6 170/1/6 172/1/6
f 172/1/6 170/1/6 173/1/6
f 173/1/6 170/1/6 174/1/6
f 175/3/6 176/3/6 178/3/6
f 178/3/6 176/3/6 179/3/6
f 177/3/6 178/3/6 181/3/6
f 179/3/6 180/3/6 181/3/6
f 178/3/6 179/3/6 181/3/6
f 181/3/6 180/3/6 182/3/6
f 182/3/6 180/3/6 183/3/6
f 183/3/6 180/3/6 184/3/6
f 182/3/6 183/3/6 185/3/6
f 185/3/6 183/3/6 186/3/6
