# MagicaVoxel @ Ephtracy

# group
o 

# material
mtllib right arm.mtl
usemtl palette

# normals
vn -1 0 0
vn 1 0 0
vn 0 0 1
vn 0 0 -1
vn 0 -1 0
vn 0 1 0

# texcoords
vt 0.814453 0.5
vt 0.845703 0.5
vt 0.974609 0.5

# verts
v -1.8 1 0.2
v -1.8 1 -0.2
v -1.8 1.3 0.2
v -1.8 1.3 -0.2
v -1.6 1.1 -0.2
v -1.6 1.1 -0.3
v -1.6 1.2 0.3
v -1.6 1.2 0.2
v -1.6 1.3 0.3
v -1.6 1.3 0.2
v -1.6 1.3 -0.2
v -1.6 1.3 -0.3
v -1.5 0.9 0.3
v -1.5 0.9 0.2
v -1.5 0.9 -0.2
v -1.5 0.9 -0.3
v -1.5 1 0.3
v -1.5 1 0.2
v -1.5 1 -0.2
v -1.5 1 -0.3
v -1.5 1.1 0.3
v -1.5 1.1 0.2
v -1.5 1.2 0.3
v -1.5 1.2 0.2
v -1.5 1.3 0.3
v -1.5 1.3 0.2
v -1.5 1.3 -0.2
v -1.5 1.3 -0.3
v -1.5 1.4 0.3
v -1.5 1.4 0.2
v -1.5 1.4 -0.2
v -1.5 1.4 -0.3
v -1.4 0.9 0.2
v -1.4 0.9 -2.98023e-08
v -1.4 0.9 -0.1
v -1.4 0.9 -0.2
v -1.4 1 0.3
v -1.4 1 0.2
v -1.4 1 -2.98023e-08
v -1.4 1 -0.1
v -1.4 1 -0.2
v -1.4 1 -0.3
v -1.4 1.1 0.3
v -1.4 1.1 0.2
v -1.4 1.1 -0.2
v -1.4 1.1 -0.3
v -1.4 1.3 0.2
v -1.4 1.3 0.1
v -1.4 1.3 -0.1
v -1.4 1.3 -0.2
v -1.4 1.4 0.2
v -1.4 1.4 0.1
v -1.4 1.4 -0.1
v -1.4 1.4 -0.2
v -1.3 0.9 -2.98023e-08
v -1.3 0.9 -0.1
v -1.3 1 -2.98023e-08
v -1.3 1 -0.1
v -1.3 1.1 0.3
v -1.3 1.1 0.2
v -1.3 1.1 -0.2
v -1.3 1.1 -0.3
v -1.3 1.2 0.3
v -1.3 1.2 0.2
v -1.3 1.2 -0.2
v -1.3 1.2 -0.3
v -1.3 1.3 0.1
v -1.3 1.3 -0.1
v -1.3 1.4 0.1
v -1.3 1.4 -0.1
v -1.4 1.1 0.3
v -1.4 1.1 0.2
v -1.4 1.1 -0.2
v -1.4 1.1 -0.3
v -1.4 1.2 0.3
v -1.4 1.2 0.2
v -1.4 1.2 -0.2
v -1.4 1.2 -0.3
v -1.2 0.9 0.3
v -1.2 0.9 0.2
v -1.2 0.9 -0.2
v -1.2 0.9 -0.3
v -1.2 1 0.3
v -1.2 1 0.2
v -1.2 1 -0.2
v -1.2 1 -0.3
v -1.2 1.3 0.3
v -1.2 1.3 0.2
v -1.2 1.3 -0.2
v -1.2 1.3 -0.3
v -1.2 1.4 0.3
v -1.2 1.4 0.2
v -1.2 1.4 -0.2
v -1.2 1.4 -0.3
v -1.1 0.9 0.2
v -1.1 0.9 -0.2
v -1.1 1 0.3
v -1.1 1 0.2
v -1.1 1 -0.2
v -1.1 1 -0.3
v -1.1 1.3 0.3
v -1.1 1.3 0.2
v -1.1 1.3 -0.2
v -1.1 1.3 -0.3
v -1.1 1.4 0.2
v -1.1 1.4 -0.2
v -1.6 1.2 0.3
v -1.6 1.3 0.3
v -1.5 0.9 0.3
v -1.5 1 0.3
v -1.5 1.1 0.3
v -1.5 1.2 0.3
v -1.5 1.3 0.3
v -1.5 1.4 0.3
v -1.4 1 0.3
v -1.4 1.1 0.3
v -1.4 1.2 0.3
v -1.3 1.1 0.3
v -1.3 1.2 0.3
v -1.2 0.9 0.3
v -1.2 1 0.3
v -1.2 1.3 0.3
v -1.2 1.4 0.3
v -1.1 1 0.3
v -1.1 1.3 0.3
v -1.8 1 0.2
v -1.8 1.3 0.2
v -1.6 1.2 0.2
v -1.6 1.3 0.2
v -1.5 1 0.2
v -1.5 1.1 0.2
v -1.5 1.2 0.2
v -1.4 1 0.2
v -1.4 1.1 0.2
v -1.4 1.2 0.2
v -1.3 1.1 0.2
v -1.3 1.2 0.2
v -1.2 0.9 0.2
v -1.2 1 0.2
v -1.2 1.3 0.2
v -1.2 1.4 0.2
v -1.1 0.9 0.2
v -1.1 1 0.2
v -1.1 1.3 0.2
v -1.1 1.4 0.2
v -1.4 0.9 -0.1
v -1.4 1 -0.1
v -1.4 1.3 -0.1
v -1.4 1.4 -0.1
v -1.3 0.9 -0.1
v -1.3 1 -0.1
v -1.3 1.3 -0.1
v -1.3 1.4 -0.1
v -1.5 0.9 -0.2
v -1.5 1 -0.2
v -1.5 1.3 -0.2
v -1.5 1.4 -0.2
v -1.4 0.9 -0.2
v -1.4 1 -0.2
v -1.4 1.3 -0.2
v -1.4 1.4 -0.2
v -1.5 0.9 0.2
v -1.5 1 0.2
v -1.5 1.3 0.2
v -1.5 1.4 0.2
v -1.4 0.9 0.2
v -1.4 1 0.2
v -1.4 1.3 0.2
v -1.4 1.4 0.2
v -1.4 1.3 0.1
v -1.4 1.4 0.1
v -1.3 1.3 0.1
v -1.3 1.4 0.1
v -1.4 0.9 -2.98023e-08
v -1.4 1 -2.98023e-08
v -1.3 0.9 -2.98023e-08
v -1.3 1 -2.98023e-08
v -1.8 1 -0.2
v -1.8 1.3 -0.2
v -1.6 1.1 -0.2
v -1.6 1.3 -0.2
v -1.5 1 -0.2
v -1.4 1 -0.2
v -1.4 1.1 -0.2
v -1.4 1.2 -0.2
v -1.3 1.1 -0.2
v -1.3 1.2 -0.2
v -1.2 0.9 -0.2
v -1.2 1 -0.2
v -1.2 1.3 -0.2
v -1.2 1.4 -0.2
v -1.1 0.9 -0.2
v -1.1 1 -0.2
v -1.1 1.3 -0.2
v -1.1 1.4 -0.2
v -1.6 1.1 -0.3
v -1.6 1.3 -0.3
v -1.5 0.9 -0.3
v -1.5 1 -0.3
v -1.5 1.3 -0.3
v -1.5 1.4 -0.3
v -1.4 1 -0.3
v -1.4 1.1 -0.3
v -1.4 1.2 -0.3
v -1.3 1.1 -0.3
v -1.3 1.2 -0.3
v -1.2 0.9 -0.3
v -1.2 1 -0.3
v -1.2 1.3 -0.3
v -1.2 1.4 -0.3
v -1.1 1 -0.3
v -1.1 1.3 -0.3
v -1.5 0.9 0.3
v -1.2 0.9 0.3
v -1.5 0.9 0.2
v -1.4 0.9 0.2
v -1.2 0.9 0.2
v -1.1 0.9 0.2
v -1.4 0.9 -2.98023e-08
v -1.3 0.9 -2.98023e-08
v -1.4 0.9 -0.1
v -1.3 0.9 -0.1
v -1.5 0.9 -0.2
v -1.4 0.9 -0.2
v -1.2 0.9 -0.2
v -1.1 0.9 -0.2
v -1.5 0.9 -0.3
v -1.2 0.9 -0.3
v -1.2 1 0.3
v -1.1 1 0.3
v -1.8 1 0.2
v -1.5 1 0.2
v -1.4 1 0.2
v -1.2 1 0.2
v -1.1 1 0.2
v -1.4 1 -2.98023e-08
v -1.3 1 -2.98023e-08
v -1.4 1 -0.1
v -1.3 1 -0.1
v -1.8 1 -0.2
v -1.5 1 -0.2
v -1.4 1 -0.2
v -1.2 1 -0.2
v -1.1 1 -0.2
v -1.2 1 -0.3
v -1.1 1 -0.3
v -1.5 1.1 0.3
v -1.4 1.1 0.3
v -1.5 1.1 0.2
v -1.4 1.1 0.2
v -1.6 1.1 -0.2
v -1.4 1.1 -0.2
v -1.6 1.1 -0.3
v -1.4 1.1 -0.3
v -1.6 1.2 0.3
v -1.5 1.2 0.3
v -1.4 1.2 0.3
v -1.3 1.2 0.3
v -1.6 1.2 0.2
v -1.5 1.2 0.2
v -1.4 1.2 0.2
v -1.3 1.2 0.2
v -1.4 1.2 -0.2
v -1.3 1.2 -0.2
v -1.4 1.2 -0.3
v -1.3 1.2 -0.3
v -1.5 1 0.3
v -1.4 1 0.3
v -1.5 1 0.2
v -1.4 1 0.2
v -1.5 1 -0.2
v -1.4 1 -0.2
v -1.5 1 -0.3
v -1.4 1 -0.3
v -1.4 1.1 0.3
v -1.3 1.1 0.3
v -1.4 1.1 0.2
v -1.3 1.1 0.2
v -1.4 1.1 -0.2
v -1.3 1.1 -0.2
v -1.4 1.1 -0.3
v -1.3 1.1 -0.3
v -1.6 1.3 0.3
v -1.5 1.3 0.3
v -1.2 1.3 0.3
v -1.1 1.3 0.3
v -1.8 1.3 0.2
v -1.6 1.3 0.2
v -1.5 1.3 0.2
v -1.4 1.3 0.2
v -1.2 1.3 0.2
v -1.1 1.3 0.2
v -1.4 1.3 0.1
v -1.3 1.3 0.1
v -1.4 1.3 -0.1
v -1.3 1.3 -0.1
v -1.8 1.3 -0.2
v -1.6 1.3 -0.2
v -1.5 1.3 -0.2
v -1.4 1.3 -0.2
v -1.2 1.3 -0.2
v -1.1 1.3 -0.2
v -1.6 1.3 -0.3
v -1.5 1.3 -0.3
v -1.2 1.3 -0.3
v -1.1 1.3 -0.3
v -1.5 1.4 0.3
v -1.2 1.4 0.3
v -1.5 1.4 0.2
v -1.4 1.4 0.2
v -1.2 1.4 0.2
v -1.1 1.4 0.2
v -1.4 1.4 0.1
v -1.3 1.4 0.1
v -1.4 1.4 -0.1
v -1.3 1.4 -0.1
v -1.5 1.4 -0.2
v -1.4 1.4 -0.2
v -1.2 1.4 -0.2
v -1.1 1.4 -0.2
v -1.5 1.4 -0.3
v -1.2 1.4 -0.3

# faces
f 3/1/1 2/1/1 1/1/1
f 4/1/1 2/1/1 3/1/1
f 9/2/1 8/2/1 7/2/1
f 10/2/1 8/2/1 9/2/1
f 11/2/1 6/2/1 5/2/1
f 12/2/1 6/2/1 11/2/1
f 17/2/1 14/2/1 13/2/1
f 18/2/1 14/2/1 17/2/1
f 19/2/1 16/2/1 15/2/1
f 20/2/1 16/2/1 19/2/1
f 23/2/1 22/2/1 21/2/1
f 24/2/1 22/2/1 23/2/1
f 29/2/1 26/2/1 25/2/1
f 30/2/1 26/2/1 29/2/1
f 31/2/1 28/2/1 27/2/1
f 32/2/1 28/2/1 31/2/1
f 38/2/1 34/2/1 33/2/1
f 39/2/1 34/2/1 38/2/1
f 40/2/1 36/2/1 35/2/1
f 41/2/1 36/2/1 40/2/1
f 43/2/1 38/2/1 37/2/1
f 44/2/1 38/2/1 43/2/1
f 45/2/1 42/2/1 41/2/1
f 46/2/1 42/2/1 45/2/1
f 51/2/1 48/2/1 47/2/1
f 52/2/1 48/2/1 51/2/1
f 53/2/1 50/2/1 49/2/1
f 54/2/1 50/2/1 53/2/1
f 57/2/1 56/2/1 55/2/1
f 58/2/1 56/2/1 57/2/1
f 63/2/1 60/2/1 59/2/1
f 64/2/1 60/2/1 63/2/1
f 65/2/1 62/2/1 61/2/1
f 66/2/1 62/2/1 65/2/1
f 69/2/1 68/2/1 67/2/1
f 70/2/1 68/2/1 69/2/1
f 71/2/2 72/2/2 75/2/2
f 75/2/2 72/2/2 76/2/2
f 73/2/2 74/2/2 77/2/2
f 77/2/2 74/2/2 78/2/2
f 79/2/2 80/2/2 83/2/2
f 83/2/2 80/2/2 84/2/2
f 81/2/2 82/2/2 85/2/2
f 85/2/2 82/2/2 86/2/2
f 87/2/2 88/2/2 91/2/2
f 91/2/2 88/2/2 92/2/2
f 89/2/2 90/2/2 93/2/2
f 93/2/2 90/2/2 94/2/2
f 95/2/2 96/2/2 98/2/2
f 98/2/2 96/2/2 99/2/2
f 97/2/2 98/2/2 101/2/2
f 99/2/2 100/2/2 101/2/2
f 98/2/2 99/2/2 101/2/2
f 101/2/2 100/2/2 102/2/2
f 102/2/2 100/2/2 103/2/2
f 103/2/2 100/2/2 104/2/2
f 102/2/2 103/2/2 105/2/2
f 105/2/2 103/2/2 106/2/2
f 112/2/3 108/2/3 107/2/3
f 113/2/3 108/2/3 112/2/3
f 115/2/3 110/2/3 109/2/3
f 116/2/3 114/2/3 113/2/3
f 116/2/3 112/2/3 111/2/3
f 116/2/3 113/2/3 112/2/3
f 117/2/3 114/2/3 116/2/3
f 118/2/3 116/2/3 115/2/3
f 119/2/3 114/2/3 117/2/3
f 120/2/3 115/2/3 109/2/3
f 120/2/3 119/2/3 118/2/3
f 120/2/3 118/2/3 115/2/3
f 121/2/3 119/2/3 120/2/3
f 122/2/3 114/2/3 119/2/3
f 122/2/3 119/2/3 121/2/3
f 123/2/3 114/2/3 122/2/3
f 124/2/3 122/2/3 121/2/3
f 125/2/3 122/2/3 124/2/3
f 128/1/3 127/1/3 126/1/3
f 129/1/3 127/1/3 128/1/3
f 130/1/3 128/1/3 126/1/3
f 131/1/3 128/1/3 130/1/3
f 132/1/3 128/1/3 131/1/3
f 133/1/3 131/1/3 130/1/3
f 134/1/3 131/1/3 133/1/3
f 136/1/3 135/1/3 134/1/3
f 137/1/3 135/1/3 136/1/3
f 142/2/3 139/2/3 138/2/3
f 143/2/3 139/2/3 142/2/3
f 144/2/3 141/2/3 140/2/3
f 145/2/3 141/2/3 144/2/3
f 150/2/3 147/2/3 146/2/3
f 151/2/3 147/2/3 150/2/3
f 152/2/3 149/2/3 148/2/3
f 153/2/3 149/2/3 152/2/3
f 158/2/3 155/2/3 154/2/3
f 159/2/3 155/2/3 158/2/3
f 160/2/3 157/2/3 156/2/3
f 161/2/3 157/2/3 160/2/3
f 162/2/4 163/2/4 166/2/4
f 166/2/4 163/2/4 167/2/4
f 164/2/4 165/2/4 168/2/4
f 168/2/4 165/2/4 169/2/4
f 170/2/4 171/2/4 172/2/4
f 172/2/4 171/2/4 173/2/4
f 174/2/4 175/2/4 176/2/4
f 176/2/4 175/2/4 177/2/4
f 178/1/4 179/1/4 180/1/4
f 180/1/4 179/1/4 181/1/4
f 178/1/4 180/1/4 182/1/4
f 182/1/4 180/1/4 183/1/4
f 183/1/4 180/1/4 184/1/4
f 184/1/4 185/1/4 186/1/4
f 186/1/4 185/1/4 187/1/4
f 188/2/4 189/2/4 192/2/4
f 192/2/4 189/2/4 193/2/4
f 190/2/4 191/2/4 194/2/4
f 194/2/4 191/2/4 195/2/4
f 196/2/4 197/2/4 200/2/4
f 198/2/4 199/2/4 202/2/4
f 200/2/4 201/2/4 203/2/4
f 196/2/4 200/2/4 203/2/4
f 203/2/4 201/2/4 204/2/4
f 202/2/4 203/2/4 205/2/4
f 204/2/4 201/2/4 206/2/4
f 198/2/4 202/2/4 207/2/4
f 205/2/4 206/2/4 207/2/4
f 202/2/4 205/2/4 207/2/4
f 207/2/4 206/2/4 208/2/4
f 206/2/4 201/2/4 209/2/4
f 208/2/4 206/2/4 209/2/4
f 209/2/4 201/2/4 210/2/4
f 208/2/4 209/2/4 211/2/4
f 211/2/4 209/2/4 212/2/4
f 215/2/5 214/2/5 213/2/5
f 216/2/5 214/2/5 215/2/5
f 217/2/5 214/2/5 216/2/5
f 219/2/5 218/2/5 217/2/5
f 219/2/5 217/2/5 216/2/5
f 220/2/5 218/2/5 219/2/5
f 222/2/5 218/2/5 220/2/5
f 224/2/5 222/2/5 221/2/5
f 225/2/5 218/2/5 222/2/5
f 225/2/5 222/2/5 224/2/5
f 226/2/5 218/2/5 225/2/5
f 227/2/5 224/2/5 223/2/5
f 227/2/5 225/2/5 224/2/5
f 228/2/5 225/2/5 227/2/5
f 234/2/5 230/2/5 229/2/5
f 235/2/5 230/2/5 234/2/5
f 236/1/5 233/1/5 232/1/5
f 236/1/5 232/1/5 231/1/5
f 238/1/5 236/1/5 231/1/5
f 238/1/5 237/1/5 236/1/5
f 239/1/5 237/1/5 238/1/5
f 240/1/5 238/1/5 231/1/5
f 241/1/5 238/1/5 240/1/5
f 242/1/5 238/1/5 241/1/5
f 245/2/5 244/2/5 243/2/5
f 246/2/5 244/2/5 245/2/5
f 249/2/5 248/2/5 247/2/5
f 250/2/5 248/2/5 249/2/5
f 253/2/5 252/2/5 251/2/5
f 254/2/5 252/2/5 253/2/5
f 259/2/5 256/2/5 255/2/5
f 260/2/5 256/2/5 259/2/5
f 261/2/5 258/2/5 257/2/5
f 262/2/5 258/2/5 261/2/5
f 265/2/5 264/2/5 263/2/5
f 266/2/5 264/2/5 265/2/5
f 267/2/6 268/2/6 269/2/6
f 269/2/6 268/2/6 270/2/6
f 271/2/6 272/2/6 273/2/6
f 273/2/6 272/2/6 274/2/6
f 275/2/6 276/2/6 277/2/6
f 277/2/6 276/2/6 278/2/6
f 279/2/6 280/2/6 281/2/6
f 281/2/6 280/2/6 282/2/6
f 283/2/6 284/2/6 288/2/6
f 288/2/6 284/2/6 289/2/6
f 285/2/6 286/2/6 291/2/6
f 291/2/6 286/2/6 292/2/6
f 289/1/6 290/1/6 293/1/6
f 287/1/6 288/1/6 293/1/6
f 288/1/6 289/1/6 293/1/6
f 287/1/6 293/1/6 295/1/6
f 293/1/6 294/1/6 295/1/6
f 295/1/6 294/1/6 296/1/6
f 287/1/6 295/1/6 297/1/6
f 297/1/6 295/1/6 298/1/6
f 298/1/6 295/1/6 299/1/6
f 299/1/6 295/1/6 300/1/6
f 298/2/6 299/2/6 303/2/6
f 303/2/6 299/2/6 304/2/6
f 301/2/6 302/2/6 305/2/6
f 305/2/6 302/2/6 306/2/6
f 307/2/6 308/2/6 309/2/6
f 309/2/6 308/2/6 310/2/6
f 310/2/6 308/2/6 311/2/6
f 311/2/6 312/2/6 313/2/6
f 310/2/6 311/2/6 313/2/6
f 313/2/6 312/2/6 314/2/6
f 314/2/6 312/2/6 316/2/6
f 315/2/6 316/2/6 318/2/6
f 316/2/6 312/2/6 319/2/6
f 318/2/6 316/2/6 319/2/6
f 319/2/6 312/2/6 320/2/6
f 317/2/6 318/2/6 321/2/6
f 318/2/6 319/2/6 321/2/6
f 321/2/6 319/2/6 322/2/6
