# MagicaVoxel @ Ephtracy

# group
o 

# material
mtllib left leg.mtl
usemtl palette

# normals
vn -1 0 0
vn 1 0 0
vn 0 0 1
vn 0 0 -1
vn 0 -1 0
vn 0 1 0

# texcoords
vt 0.814453 0.5
vt 0.845703 0.5
vt 0.876953 0.5
vt 0.880859 0.5
vt 0.884766 0.5

# verts
v 0.1 0 -0.1
v 0.1 0 -0.2
v 0.1 0.1 0.2
v 0.1 0.1 -0.1
v 0.1 0.3 0.2
v 0.1 0.3 -0.2
v 0.2 0 0.2
v 0.2 0 -0.1
v 0.2 0 -0.2
v 0.2 0 -0.3
v 0.2 0.1 0.3
v 0.2 0.1 0.2
v 0.2 0.1 -0.1
v 0.2 0.3 0.3
v 0.2 0.3 0.2
v 0.2 0.3 -0.2
v 0.2 0.3 -0.3
v 0.2 0.5 0.2
v 0.2 0.5 -0.2
v 0.6 0 0.2
v 0.6 0 -0.1
v 0.6 0 -0.2
v 0.6 0 -0.3
v 0.6 0.1 0.2
v 0.6 0.1 0.1
v 0.6 0.1 -2.98023e-08
v 0.6 0.1 -0.1
v 0.6 0.3 0.2
v 0.6 0.3 0.1
v 0.6 0.3 -2.98023e-08
v 0.6 0.3 -0.2
v 0.6 0.3 -0.3
v 0.6 0.5 0.2
v 0.6 0.5 -0.2
v 0.7 0 -0.1
v 0.7 0 -0.2
v 0.7 0.1 0.3
v 0.7 0.1 0.2
v 0.7 0.1 0.1
v 0.7 0.1 -2.98023e-08
v 0.7 0.1 -0.1
v 0.7 0.3 0.3
v 0.7 0.3 0.2
v 0.7 0.3 0.1
v 0.7 0.3 -2.98023e-08
v 0.7 0.3 -0.2
v 0.2 0.1 0.3
v 0.2 0.3 0.3
v 0.4 0.1 0.3
v 0.4 0.3 0.3
v 0.5 0.1 0.3
v 0.5 0.3 0.3
v 0.6 0.1 0.3
v 0.6 0.3 0.3
v 0.7 0.1 0.3
v 0.7 0.3 0.3
v 0.1 0.1 0.2
v 0.1 0.3 0.2
v 0.2 0 0.2
v 0.2 0.1 0.2
v 0.2 0.3 0.2
v 0.2 0.5 0.2
v 0.4 0.1 0.2
v 0.4 0.3 0.2
v 0.5 0.1 0.2
v 0.5 0.3 0.2
v 0.6 0 0.2
v 0.6 0.1 0.2
v 0.6 0.3 0.2
v 0.6 0.5 0.2
v 0.1 0 -0.1
v 0.1 0.1 -0.1
v 0.2 0 -0.1
v 0.2 0.1 -0.1
v 0.6 0 -0.1
v 0.6 0.1 -0.1
v 0.7 0 -0.1
v 0.7 0.1 -0.1
v 0.1 0 -0.2
v 0.1 0.3 -0.2
v 0.2 0 -0.2
v 0.2 0.3 -0.2
v 0.2 0.5 -0.2
v 0.6 0 -0.2
v 0.6 0.3 -0.2
v 0.6 0.5 -0.2
v 0.7 0 -0.2
v 0.7 0.3 -0.2
v 0.2 0 -0.3
v 0.2 0.3 -0.3
v 0.6 0 -0.3
v 0.6 0.3 -0.3
v 0.2 0 0.2
v 0.6 0 0.2
v 0.1 0 -0.1
v 0.2 0 -0.1
v 0.6 0 -0.1
v 0.7 0 -0.1
v 0.1 0 -0.2
v 0.2 0 -0.2
v 0.6 0 -0.2
v 0.7 0 -0.2
v 0.2 0 -0.3
v 0.6 0 -0.3
v 0.2 0.1 0.3
v 0.4 0.1 0.3
v 0.5 0.1 0.3
v 0.6 0.1 0.3
v 0.7 0.1 0.3
v 0.1 0.1 0.2
v 0.2 0.1 0.2
v 0.4 0.1 0.2
v 0.5 0.1 0.2
v 0.6 0.1 0.2
v 0.7 0.1 0.2
v 0.6 0.1 0.1
v 0.7 0.1 0.1
v 0.6 0.1 -2.98023e-08
v 0.7 0.1 -2.98023e-08
v 0.1 0.1 -0.1
v 0.2 0.1 -0.1
v 0.6 0.1 -0.1
v 0.7 0.1 -0.1
v 0.2 0.3 0.3
v 0.4 0.3 0.3
v 0.5 0.3 0.3
v 0.6 0.3 0.3
v 0.7 0.3 0.3
v 0.1 0.3 0.2
v 0.2 0.3 0.2
v 0.4 0.3 0.2
v 0.5 0.3 0.2
v 0.6 0.3 0.2
v 0.7 0.3 0.2
v 0.6 0.3 0.1
v 0.7 0.3 0.1
v 0.6 0.3 -2.98023e-08
v 0.7 0.3 -2.98023e-08
v 0.1 0.3 -0.2
v 0.2 0.3 -0.2
v 0.6 0.3 -0.2
v 0.7 0.3 -0.2
v 0.2 0.3 -0.3
v 0.6 0.3 -0.3
v 0.2 0.5 0.2
v 0.6 0.5 0.2
v 0.2 0.5 -0.2
v 0.6 0.5 -0.2

# faces
f 4/3/1 2/3/1 1/3/1
f 5/3/1 4/3/1 3/3/1
f 6/3/1 2/3/1 4/3/1
f 6/3/1 4/3/1 5/3/1
f 12/2/1 8/2/1 7/2/1
f 13/2/1 8/2/1 12/2/1
f 14/3/1 12/3/1 11/3/1
f 15/3/1 12/3/1 14/3/1
f 16/3/1 10/3/1 9/3/1
f 17/3/1 10/3/1 16/3/1
f 18/2/1 16/2/1 15/2/1
f 19/2/1 16/2/1 18/2/1
f 20/2/2 21/2/2 24/2/2
f 24/2/2 21/2/2 25/2/2
f 25/2/2 21/2/2 26/2/2
f 26/2/2 21/2/2 27/2/2
f 22/3/2 23/3/2 31/3/2
f 31/3/2 23/3/2 32/3/2
f 29/2/2 30/2/2 33/2/2
f 28/2/2 29/2/2 33/2/2
f 30/2/2 31/2/2 33/2/2
f 33/2/2 31/2/2 34/2/2
f 35/3/2 36/3/2 41/3/2
f 37/4/2 38/4/2 42/4/2
f 38/5/2 39/5/2 43/5/2
f 42/4/2 38/4/2 43/4/2
f 39/4/2 40/4/2 44/4/2
f 43/5/2 39/5/2 44/5/2
f 40/3/2 41/3/2 45/3/2
f 44/4/2 40/4/2 45/4/2
f 41/3/2 36/3/2 46/3/2
f 45/3/2 41/3/2 46/3/2
f 49/3/3 48/3/3 47/3/3
f 50/3/3 48/3/3 49/3/3
f 51/4/3 50/4/3 49/4/3
f 52/4/3 50/4/3 51/4/3
f 53/5/3 52/5/3 51/5/3
f 54/5/3 52/5/3 53/5/3
f 55/4/3 54/4/3 53/4/3
f 56/4/3 54/4/3 55/4/3
f 60/3/3 58/3/3 57/3/3
f 61/3/3 58/3/3 60/3/3
f 63/2/3 60/2/3 59/2/3
f 64/2/3 62/2/3 61/2/3
f 65/2/3 63/2/3 59/2/3
f 66/2/3 62/2/3 64/2/3
f 67/2/3 65/2/3 59/2/3
f 68/2/3 65/2/3 67/2/3
f 69/2/3 62/2/3 66/2/3
f 70/2/3 62/2/3 69/2/3
f 73/3/3 72/3/3 71/3/3
f 74/3/3 72/3/3 73/3/3
f 77/3/3 76/3/3 75/3/3
f 78/3/3 76/3/3 77/3/3
f 79/3/4 80/3/4 81/3/4
f 81/3/4 80/3/4 82/3/4
f 82/2/4 83/2/4 85/2/4
f 85/2/4 83/2/4 86/2/4
f 84/3/4 85/3/4 87/3/4
f 87/3/4 85/3/4 88/3/4
f 89/3/4 90/3/4 91/3/4
f 91/3/4 90/3/4 92/3/4
f 96/2/5 94/2/5 93/2/5
f 97/2/5 94/2/5 96/2/5
f 99/3/5 96/3/5 95/3/5
f 100/1/5 97/1/5 96/1/5
f 100/3/5 96/3/5 99/3/5
f 101/3/5 98/3/5 97/3/5
f 101/1/5 97/1/5 100/1/5
f 102/3/5 98/3/5 101/3/5
f 103/3/5 101/3/5 100/3/5
f 104/3/5 101/3/5 103/3/5
f 111/3/5 106/3/5 105/3/5
f 112/4/5 107/4/5 106/4/5
f 112/3/5 106/3/5 111/3/5
f 113/5/5 108/5/5 107/5/5
f 113/4/5 107/4/5 112/4/5
f 114/4/5 109/4/5 108/4/5
f 114/5/5 108/5/5 113/5/5
f 115/4/5 109/4/5 114/4/5
f 116/5/5 115/5/5 114/5/5
f 117/5/5 115/5/5 116/5/5
f 118/4/5 117/4/5 116/4/5
f 119/4/5 117/4/5 118/4/5
f 120/3/5 111/3/5 110/3/5
f 121/3/5 111/3/5 120/3/5
f 122/3/5 119/3/5 118/3/5
f 123/3/5 119/3/5 122/3/5
f 124/3/6 125/3/6 130/3/6
f 125/4/6 126/4/6 131/4/6
f 130/3/6 125/3/6 131/3/6
f 126/5/6 127/5/6 132/5/6
f 131/4/6 126/4/6 132/4/6
f 127/4/6 128/4/6 133/4/6
f 132/5/6 127/5/6 133/5/6
f 133/4/6 128/4/6 134/4/6
f 133/5/6 134/5/6 135/5/6
f 135/5/6 134/5/6 136/5/6
f 135/4/6 136/4/6 137/4/6
f 137/4/6 136/4/6 138/4/6
f 129/3/6 130/3/6 139/3/6
f 139/3/6 130/3/6 140/3/6
f 137/3/6 138/3/6 141/3/6
f 141/3/6 138/3/6 142/3/6
f 140/3/6 141/3/6 143/3/6
f 143/3/6 141/3/6 144/3/6
f 145/2/6 146/2/6 147/2/6
f 147/2/6 146/2/6 148/2/6
