# MagicaVoxel @ Ephtracy

# group
o 

# material
mtllib left arm.mtl
usemtl palette

# normals
vn -1 0 0
vn 1 0 0
vn 0 0 1
vn 0 0 -1
vn 0 -1 0
vn 0 1 0

# texcoords
vt 0.814453 0.5
vt 0.845703 0.5
vt 0.908203 0.5
vt 0.912109 0.5
vt 0.916016 0.5

# verts
v 1.1 0.9 0.2
v 1.1 0.9 -0.2
v 1.1 1 0.3
v 1.1 1 0.2
v 1.1 1 -0.2
v 1.1 1 -0.3
v 1.1 1.3 0.3
v 1.1 1.3 0.2
v 1.1 1.3 -0.2
v 1.1 1.3 -0.3
v 1.1 1.4 0.2
v 1.1 1.4 -0.2
v 1.2 0.8 0.3
v 1.2 0.8 -0.3
v 1.2 0.9 0.4
v 1.2 0.9 0.3
v 1.2 0.9 0.2
v 1.2 0.9 -0.2
v 1.2 0.9 -0.3
v 1.2 0.9 -0.4
v 1.2 1 0.3
v 1.2 1 0.2
v 1.2 1 -0.2
v 1.2 1 -0.3
v 1.2 1.3 0.3
v 1.2 1.3 0.2
v 1.2 1.3 -0.2
v 1.2 1.3 -0.3
v 1.2 1.4 0.4
v 1.2 1.4 0.3
v 1.2 1.4 0.2
v 1.2 1.4 -0.2
v 1.2 1.4 -0.3
v 1.2 1.4 -0.4
v 1.2 1.5 0.3
v 1.2 1.5 -0.3
v 1.5 0.8 0.3
v 1.5 0.8 -0.3
v 1.5 0.9 0.4
v 1.5 0.9 0.3
v 1.5 0.9 -0.3
v 1.5 0.9 -0.4
v 1.5 1.4 0.4
v 1.5 1.4 0.3
v 1.5 1.4 -0.3
v 1.5 1.4 -0.4
v 1.5 1.5 0.3
v 1.5 1.5 -0.3
v 1.6 0.9 0.3
v 1.6 0.9 -0.3
v 1.6 1 0.2
v 1.6 1 -0.2
v 1.6 1.3 0.2
v 1.6 1.3 -0.2
v 1.6 1.4 0.3
v 1.6 1.4 -0.3
v 1.7 1 0.2
v 1.7 1 -0.2
v 1.7 1.3 0.2
v 1.7 1.3 -0.2
v 1.2 0.9 0.4
v 1.2 1.4 0.4
v 1.3 0.9 0.4
v 1.3 1.4 0.4
v 1.4 0.9 0.4
v 1.4 1.4 0.4
v 1.5 0.9 0.4
v 1.5 1.4 0.4
v 1.1 1 0.3
v 1.1 1.3 0.3
v 1.2 0.8 0.3
v 1.2 0.9 0.3
v 1.2 1 0.3
v 1.2 1.3 0.3
v 1.2 1.4 0.3
v 1.2 1.5 0.3
v 1.3 0.8 0.3
v 1.3 0.9 0.3
v 1.3 1.4 0.3
v 1.3 1.5 0.3
v 1.4 0.8 0.3
v 1.4 0.9 0.3
v 1.4 1.4 0.3
v 1.4 1.5 0.3
v 1.5 0.8 0.3
v 1.5 0.9 0.3
v 1.5 1.4 0.3
v 1.5 1.5 0.3
v 1.6 0.9 0.3
v 1.6 1.4 0.3
v 1.1 0.9 0.2
v 1.1 1 0.2
v 1.1 1.3 0.2
v 1.1 1.4 0.2
v 1.2 0.9 0.2
v 1.2 1 0.2
v 1.2 1.3 0.2
v 1.2 1.4 0.2
v 1.6 1 0.2
v 1.6 1.3 0.2
v 1.7 1 0.2
v 1.7 1.3 0.2
v 1.1 0.9 -0.2
v 1.1 1 -0.2
v 1.1 1.3 -0.2
v 1.1 1.4 -0.2
v 1.2 0.9 -0.2
v 1.2 1 -0.2
v 1.2 1.3 -0.2
v 1.2 1.4 -0.2
v 1.6 1 -0.2
v 1.6 1.3 -0.2
v 1.7 1 -0.2
v 1.7 1.3 -0.2
v 1.1 1 -0.3
v 1.1 1.3 -0.3
v 1.2 0.8 -0.3
v 1.2 0.9 -0.3
v 1.2 1 -0.3
v 1.2 1.3 -0.3
v 1.2 1.4 -0.3
v 1.2 1.5 -0.3
v 1.3 0.8 -0.3
v 1.3 0.9 -0.3
v 1.3 1.4 -0.3
v 1.3 1.5 -0.3
v 1.4 0.8 -0.3
v 1.4 0.9 -0.3
v 1.4 1.4 -0.3
v 1.4 1.5 -0.3
v 1.5 0.8 -0.3
v 1.5 0.9 -0.3
v 1.5 1.4 -0.3
v 1.5 1.5 -0.3
v 1.6 0.9 -0.3
v 1.6 1.4 -0.3
v 1.2 0.9 -0.4
v 1.2 1.4 -0.4
v 1.3 0.9 -0.4
v 1.3 1.4 -0.4
v 1.4 0.9 -0.4
v 1.4 1.4 -0.4
v 1.5 0.9 -0.4
v 1.5 1.4 -0.4
v 1.2 0.8 0.3
v 1.3 0.8 0.3
v 1.4 0.8 0.3
v 1.5 0.8 0.3
v 1.2 0.8 -0.3
v 1.3 0.8 -0.3
v 1.4 0.8 -0.3
v 1.5 0.8 -0.3
v 1.2 0.9 0.4
v 1.3 0.9 0.4
v 1.4 0.9 0.4
v 1.5 0.9 0.4
v 1.2 0.9 0.3
v 1.3 0.9 0.3
v 1.4 0.9 0.3
v 1.5 0.9 0.3
v 1.6 0.9 0.3
v 1.1 0.9 0.2
v 1.2 0.9 0.2
v 1.1 0.9 -0.2
v 1.2 0.9 -0.2
v 1.2 0.9 -0.3
v 1.3 0.9 -0.3
v 1.4 0.9 -0.3
v 1.5 0.9 -0.3
v 1.6 0.9 -0.3
v 1.2 0.9 -0.4
v 1.3 0.9 -0.4
v 1.4 0.9 -0.4
v 1.5 0.9 -0.4
v 1.1 1 0.3
v 1.2 1 0.3
v 1.1 1 0.2
v 1.2 1 0.2
v 1.6 1 0.2
v 1.7 1 0.2
v 1.1 1 -0.2
v 1.2 1 -0.2
v 1.6 1 -0.2
v 1.7 1 -0.2
v 1.1 1 -0.3
v 1.2 1 -0.3
v 1.1 1.3 0.3
v 1.2 1.3 0.3
v 1.1 1.3 0.2
v 1.2 1.3 0.2
v 1.6 1.3 0.2
v 1.7 1.3 0.2
v 1.1 1.3 -0.2
v 1.2 1.3 -0.2
v 1.6 1.3 -0.2
v 1.7 1.3 -0.2
v 1.1 1.3 -0.3
v 1.2 1.3 -0.3
v 1.2 1.4 0.4
v 1.3 1.4 0.4
v 1.4 1.4 0.4
v 1.5 1.4 0.4
v 1.2 1.4 0.3
v 1.3 1.4 0.3
v 1.4 1.4 0.3
v 1.5 1.4 0.3
v 1.6 1.4 0.3
v 1.1 1.4 0.2
v 1.2 1.4 0.2
v 1.1 1.4 -0.2
v 1.2 1.4 -0.2
v 1.2 1.4 -0.3
v 1.3 1.4 -0.3
v 1.4 1.4 -0.3
v 1.5 1.4 -0.3
v 1.6 1.4 -0.3
v 1.2 1.4 -0.4
v 1.3 1.4 -0.4
v 1.4 1.4 -0.4
v 1.5 1.4 -0.4
v 1.2 1.5 0.3
v 1.3 1.5 0.3
v 1.4 1.5 0.3
v 1.5 1.5 0.3
v 1.2 1.5 -0.3
v 1.3 1.5 -0.3
v 1.4 1.5 -0.3
v 1.5 1.5 -0.3

# faces
f 4/1/1 2/1/1 1/1/1
f 5/1/1 2/1/1 4/1/1
f 7/1/1 4/1/1 3/1/1
f 7/1/1 6/1/1 5/1/1
f 7/1/1 5/1/1 4/1/1
f 8/1/1 6/1/1 7/1/1
f 9/1/1 6/1/1 8/1/1
f 10/1/1 6/1/1 9/1/1
f 11/1/1 9/1/1 8/1/1
f 12/1/1 9/1/1 11/1/1
f 16/3/1 14/3/1 13/3/1
f 17/3/1 14/3/1 16/3/1
f 18/3/1 14/3/1 17/3/1
f 19/3/1 14/3/1 18/3/1
f 21/3/1 16/3/1 15/3/1
f 21/1/1 17/1/1 16/1/1
f 22/1/1 17/1/1 21/1/1
f 23/1/1 19/1/1 18/1/1
f 24/3/1 20/3/1 19/3/1
f 24/1/1 19/1/1 23/1/1
f 25/3/1 21/3/1 15/3/1
f 28/3/1 20/3/1 24/3/1
f 29/3/1 25/3/1 15/3/1
f 30/1/1 26/1/1 25/1/1
f 30/3/1 25/3/1 29/3/1
f 31/1/1 26/1/1 30/1/1
f 32/1/1 28/1/1 27/1/1
f 33/3/1 20/3/1 28/3/1
f 33/1/1 28/1/1 32/1/1
f 34/3/1 20/3/1 33/3/1
f 35/3/1 31/3/1 30/3/1
f 35/3/1 32/3/1 31/3/1
f 35/3/1 33/3/1 32/3/1
f 36/3/1 33/3/1 35/3/1
f 37/5/2 38/5/2 40/5/2
f 40/5/2 38/5/2 41/5/2
f 39/5/2 40/5/2 43/5/2
f 43/5/2 40/5/2 44/5/2
f 41/5/2 42/5/2 45/5/2
f 45/5/2 42/5/2 46/5/2
f 44/5/2 45/5/2 47/5/2
f 47/5/2 45/5/2 48/5/2
f 49/1/2 50/1/2 51/1/2
f 51/1/2 50/1/2 52/1/2
f 49/1/2 51/1/2 53/1/2
f 52/1/2 50/1/2 54/1/2
f 49/1/2 53/1/2 55/1/2
f 53/1/2 54/1/2 55/1/2
f 54/1/2 50/1/2 56/1/2
f 55/1/2 54/1/2 56/1/2
f 57/2/2 58/2/2 59/2/2
f 59/2/2 58/2/2 60/2/2
f 63/3/3 62/3/3 61/3/3
f 64/3/3 62/3/3 63/3/3
f 65/4/3 64/4/3 63/4/3
f 66/4/3 64/4/3 65/4/3
f 67/5/3 66/5/3 65/5/3
f 68/5/3 66/5/3 67/5/3
f 73/1/3 70/1/3 69/1/3
f 74/1/3 70/1/3 73/1/3
f 77/3/3 72/3/3 71/3/3
f 78/3/3 72/3/3 77/3/3
f 79/3/3 76/3/3 75/3/3
f 80/3/3 76/3/3 79/3/3
f 81/4/3 78/4/3 77/4/3
f 82/4/3 78/4/3 81/4/3
f 83/4/3 80/4/3 79/4/3
f 84/4/3 80/4/3 83/4/3
f 85/5/3 82/5/3 81/5/3
f 86/5/3 82/5/3 85/5/3
f 87/5/3 84/5/3 83/5/3
f 88/5/3 84/5/3 87/5/3
f 89/1/3 87/1/3 86/1/3
f 90/1/3 87/1/3 89/1/3
f 95/1/3 92/1/3 91/1/3
f 96/1/3 92/1/3 95/1/3
f 97/1/3 94/1/3 93/1/3
f 98/1/3 94/1/3 97/1/3
f 101/2/3 100/2/3 99/2/3
f 102/2/3 100/2/3 101/2/3
f 103/1/4 104/1/4 107/1/4
f 107/1/4 104/1/4 108/1/4
f 105/1/4 106/1/4 109/1/4
f 109/1/4 106/1/4 110/1/4
f 111/2/4 112/2/4 113/2/4
f 113/2/4 112/2/4 114/2/4
f 115/1/4 116/1/4 119/1/4
f 119/1/4 116/1/4 120/1/4
f 117/3/4 118/3/4 123/3/4
f 123/3/4 118/3/4 124/3/4
f 121/3/4 122/3/4 125/3/4
f 125/3/4 122/3/4 126/3/4
f 123/4/4 124/4/4 127/4/4
f 127/4/4 124/4/4 128/4/4
f 125/4/4 126/4/4 129/4/4
f 129/4/4 126/4/4 130/4/4
f 127/5/4 128/5/4 131/5/4
f 131/5/4 128/5/4 132/5/4
f 129/5/4 130/5/4 133/5/4
f 133/5/4 130/5/4 134/5/4
f 132/1/4 133/1/4 135/1/4
f 135/1/4 133/1/4 136/1/4
f 137/3/4 138/3/4 139/3/4
f 139/3/4 138/3/4 140/3/4
f 139/4/4 140/4/4 141/4/4
f 141/4/4 140/4/4 142/4/4
f 141/5/4 142/5/4 143/5/4
f 143/5/4 142/5/4 144/5/4
f 149/3/5 146/3/5 145/3/5
f 150/4/5 147/4/5 146/4/5
f 150/3/5 146/3/5 149/3/5
f 151/5/5 148/5/5 147/5/5
f 151/4/5 147/4/5 150/4/5
f 152/5/5 148/5/5 151/5/5
f 157/3/5 154/3/5 153/3/5
f 158/4/5 155/4/5 154/4/5
f 158/3/5 154/3/5 157/3/5
f 159/5/5 156/5/5 155/5/5
f 159/4/5 155/4/5 158/4/5
f 160/5/5 156/5/5 159/5/5
f 164/1/5 163/1/5 162/1/5
f 165/1/5 163/1/5 164/1/5
f 169/1/5 161/1/5 160/1/5
f 170/1/5 161/1/5 169/1/5
f 171/3/5 167/3/5 166/3/5
f 172/4/5 168/4/5 167/4/5
f 172/3/5 167/3/5 171/3/5
f 173/5/5 169/5/5 168/5/5
f 173/4/5 168/4/5 172/4/5
f 174/5/5 169/5/5 173/5/5
f 177/1/5 176/1/5 175/1/5
f 178/1/5 176/1/5 177/1/5
f 183/2/5 180/2/5 179/2/5
f 184/2/5 180/2/5 183/2/5
f 185/1/5 182/1/5 181/1/5
f 186/1/5 182/1/5 185/1/5
f 187/1/6 188/1/6 189/1/6
f 189/1/6 188/1/6 190/1/6
f 191/2/6 192/2/6 195/2/6
f 195/2/6 192/2/6 196/2/6
f 193/1/6 194/1/6 197/1/6
f 197/1/6 194/1/6 198/1/6
f 199/3/6 200/3/6 203/3/6
f 200/4/6 201/4/6 204/4/6
f 203/3/6 200/3/6 204/3/6
f 201/5/6 202/5/6 205/5/6
f 204/4/6 201/4/6 205/4/6
f 205/5/6 202/5/6 206/5/6
f 208/1/6 209/1/6 210/1/6
f 210/1/6 209/1/6 211/1/6
f 206/1/6 207/1/6 215/1/6
f 215/1/6 207/1/6 216/1/6
f 212/3/6 213/3/6 217/3/6
f 213/4/6 214/4/6 218/4/6
f 217/3/6 213/3/6 218/3/6
f 214/5/6 215/5/6 219/5/6
f 218/4/6 214/4/6 219/4/6
f 219/5/6 215/5/6 220/5/6
f 221/3/6 222/3/6 225/3/6
f 222/4/6 223/4/6 226/4/6
f 225/3/6 222/3/6 226/3/6
f 223/5/6 224/5/6 227/5/6
f 226/4/6 223/4/6 227/4/6
f 227/5/6 224/5/6 228/5/6
