# MagicaVoxel @ Ephtracy

# group
o 

# material
mtllib right arm.mtl
usemtl palette

# normals
vn -1 0 0
vn 1 0 0
vn 0 0 1
vn 0 0 -1
vn 0 -1 0
vn 0 1 0

# texcoords
vt 0.818359 0.5
vt 0.822266 0.5
vt 0.845703 0.5
vt 0.876953 0.5

# verts
v 1.1 0.9 0.2
v 1.1 0.9 -0.2
v 1.1 1 0.3
v 1.1 1 0.2
v 1.1 1 -0.2
v 1.1 1 -0.3
v 1.1 1.3 0.3
v 1.1 1.3 0.2
v 1.1 1.3 -0.2
v 1.1 1.3 -0.3
v 1.1 1.4 0.2
v 1.1 1.4 -0.2
v 1.2 0.9 0.3
v 1.2 0.9 0.2
v 1.2 0.9 -0.2
v 1.2 0.9 -0.3
v 1.2 1 0.3
v 1.2 1 0.2
v 1.2 1 -0.2
v 1.2 1 -0.3
v 1.2 1.3 0.3
v 1.2 1.3 0.2
v 1.2 1.3 -0.2
v 1.2 1.3 -0.3
v 1.2 1.4 0.3
v 1.2 1.4 0.2
v 1.2 1.4 -0.2
v 1.2 1.4 -0.3
v 1.3 0.8 0.3
v 1.3 0.8 -0.3
v 1.3 0.9 0.4
v 1.3 0.9 0.3
v 1.3 0.9 -0.3
v 1.3 0.9 -0.4
v 1.3 1.4 0.4
v 1.3 1.4 0.3
v 1.3 1.4 0.2
v 1.3 1.4 0.1
v 1.3 1.4 0
v 1.3 1.4 -0.1
v 1.3 1.4 -0.3
v 1.3 1.4 -0.4
v 1.3 1.5 0.3
v 1.3 1.5 0.2
v 1.3 1.5 0.1
v 1.3 1.5 0
v 1.3 1.5 -0.1
v 1.3 1.5 -0.3
v 1.5 0.9 0.3
v 1.5 0.9 -0.3
v 1.5 1 0.2
v 1.5 1 -0.2
v 1.5 1.3 0.2
v 1.5 1.3 -0.2
v 1.5 1.4 0.3
v 1.5 1.4 0.1
v 1.5 1.4 -0.1
v 1.5 1.4 -0.3
v 1.6 1 0.2
v 1.6 1 -0.2
v 1.6 1.3 0.2
v 1.6 1.3 -0.2
v 1.2 1 0.2
v 1.2 1 -0.2
v 1.2 1.3 0.2
v 1.2 1.3 -0.2
v 1.3 0.9 0.3
v 1.3 0.9 -0.3
v 1.3 1 0.2
v 1.3 1 -0.2
v 1.3 1.3 0.2
v 1.3 1.3 -0.2
v 1.3 1.4 0.3
v 1.3 1.4 0.2
v 1.3 1.4 0.1
v 1.3 1.4 0
v 1.3 1.4 -0.1
v 1.3 1.4 -0.3
v 1.5 0.8 0.3
v 1.5 0.8 -0.3
v 1.5 0.9 0.4
v 1.5 0.9 0.3
v 1.5 0.9 -0.3
v 1.5 0.9 -0.4
v 1.5 1.4 0.4
v 1.5 1.4 0.3
v 1.5 1.4 0.1
v 1.5 1.4 -0.1
v 1.5 1.4 -0.3
v 1.5 1.4 -0.4
v 1.5 1.5 0.3
v 1.5 1.5 0.1
v 1.5 1.5 -0.1
v 1.5 1.5 -0.3
v 1.6 0.9 0.3
v 1.6 0.9 -0.3
v 1.6 1 0.2
v 1.6 1 -0.2
v 1.6 1.3 0.2
v 1.6 1.3 -0.2
v 1.6 1.4 0.3
v 1.6 1.4 -0.3
v 1.7 1 0.2
v 1.7 1 -0.2
v 1.7 1.3 0.2
v 1.7 1.3 -0.2
v 1.3 0.9 0.4
v 1.3 1.4 0.4
v 1.5 0.9 0.4
v 1.5 1.4 0.4
v 1.1 1 0.3
v 1.1 1.3 0.3
v 1.2 0.9 0.3
v 1.2 1 0.3
v 1.2 1.3 0.3
v 1.2 1.4 0.3
v 1.3 0.8 0.3
v 1.3 0.9 0.3
v 1.3 1.4 0.3
v 1.3 1.5 0.3
v 1.5 0.8 0.3
v 1.5 0.9 0.3
v 1.5 1.4 0.3
v 1.5 1.5 0.3
v 1.6 0.9 0.3
v 1.6 1.4 0.3
v 1.1 0.9 0.2
v 1.1 1 0.2
v 1.1 1.3 0.2
v 1.1 1.4 0.2
v 1.2 0.9 0.2
v 1.2 1 0.2
v 1.2 1.3 0.2
v 1.2 1.4 0.2
v 1.6 1 0.2
v 1.6 1.3 0.2
v 1.7 1 0.2
v 1.7 1.3 0.2
v 1.2 1 -0.2
v 1.2 1.3 -0.2
v 1.3 1 -0.2
v 1.3 1.3 -0.2
v 1.5 1 -0.2
v 1.5 1.3 -0.2
v 1.6 1 -0.2
v 1.6 1.3 -0.2
v 1.3 0.9 -0.3
v 1.3 1.4 -0.3
v 1.5 0.9 -0.3
v 1.5 1.4 -0.3
v 1.3 0.9 0.3
v 1.3 1.4 0.3
v 1.5 0.9 0.3
v 1.5 1.4 0.3
v 1.2 1 0.2
v 1.2 1.3 0.2
v 1.3 1 0.2
v 1.3 1.3 0.2
v 1.5 1 0.2
v 1.5 1.3 0.2
v 1.6 1 0.2
v 1.6 1.3 0.2
v 1.1 0.9 -0.2
v 1.1 1 -0.2
v 1.1 1.3 -0.2
v 1.1 1.4 -0.2
v 1.2 0.9 -0.2
v 1.2 1 -0.2
v 1.2 1.3 -0.2
v 1.2 1.4 -0.2
v 1.6 1 -0.2
v 1.6 1.3 -0.2
v 1.7 1 -0.2
v 1.7 1.3 -0.2
v 1.1 1 -0.3
v 1.1 1.3 -0.3
v 1.2 0.9 -0.3
v 1.2 1 -0.3
v 1.2 1.3 -0.3
v 1.2 1.4 -0.3
v 1.3 0.8 -0.3
v 1.3 0.9 -0.3
v 1.3 1.4 -0.3
v 1.3 1.5 -0.3
v 1.5 0.8 -0.3
v 1.5 0.9 -0.3
v 1.5 1.4 -0.3
v 1.5 1.5 -0.3
v 1.6 0.9 -0.3
v 1.6 1.4 -0.3
v 1.3 0.9 -0.4
v 1.3 1.4 -0.4
v 1.5 0.9 -0.4
v 1.5 1.4 -0.4
v 1.3 0.8 0.3
v 1.5 0.8 0.3
v 1.3 0.8 -0.3
v 1.5 0.8 -0.3
v 1.3 0.9 0.4
v 1.5 0.9 0.4
v 1.2 0.9 0.3
v 1.3 0.9 0.3
v 1.5 0.9 0.3
v 1.6 0.9 0.3
v 1.1 0.9 0.2
v 1.2 0.9 0.2
v 1.1 0.9 -0.2
v 1.2 0.9 -0.2
v 1.2 0.9 -0.3
v 1.3 0.9 -0.3
v 1.5 0.9 -0.3
v 1.6 0.9 -0.3
v 1.3 0.9 -0.4
v 1.5 0.9 -0.4
v 1.1 1 0.3
v 1.2 1 0.3
v 1.1 1 0.2
v 1.2 1 0.2
v 1.6 1 0.2
v 1.7 1 0.2
v 1.1 1 -0.2
v 1.2 1 -0.2
v 1.6 1 -0.2
v 1.7 1 -0.2
v 1.1 1 -0.3
v 1.2 1 -0.3
v 1.2 1.3 0.2
v 1.3 1.3 0.2
v 1.5 1.3 0.2
v 1.6 1.3 0.2
v 1.2 1.3 -0.2
v 1.3 1.3 -0.2
v 1.5 1.3 -0.2
v 1.6 1.3 -0.2
v 1.3 1.4 0.3
v 1.5 1.4 0.3
v 1.3 1.4 0.2
v 1.4 1.4 0.2
v 1.3 1.4 0.1
v 1.4 1.4 0.1
v 1.5 1.4 0.1
v 1.3 1.4 0
v 1.4 1.4 0
v 1.3 1.4 -0.1
v 1.5 1.4 -0.1
v 1.3 1.4 -0.3
v 1.5 1.4 -0.3
v 1.3 0.9 0.3
v 1.5 0.9 0.3
v 1.3 0.9 -0.3
v 1.5 0.9 -0.3
v 1.2 1 0.2
v 1.3 1 0.2
v 1.5 1 0.2
v 1.6 1 0.2
v 1.2 1 -0.2
v 1.3 1 -0.2
v 1.5 1 -0.2
v 1.6 1 -0.2
v 1.1 1.3 0.3
v 1.2 1.3 0.3
v 1.1 1.3 0.2
v 1.2 1.3 0.2
v 1.6 1.3 0.2
v 1.7 1.3 0.2
v 1.1 1.3 -0.2
v 1.2 1.3 -0.2
v 1.6 1.3 -0.2
v 1.7 1.3 -0.2
v 1.1 1.3 -0.3
v 1.2 1.3 -0.3
v 1.3 1.4 0.4
v 1.5 1.4 0.4
v 1.2 1.4 0.3
v 1.3 1.4 0.3
v 1.5 1.4 0.3
v 1.6 1.4 0.3
v 1.1 1.4 0.2
v 1.2 1.4 0.2
v 1.3 1.4 0.2
v 1.3 1.4 0.1
v 1.5 1.4 0.1
v 1.3 1.4 0
v 1.3 1.4 -0.1
v 1.5 1.4 -0.1
v 1.1 1.4 -0.2
v 1.2 1.4 -0.2
v 1.2 1.4 -0.3
v 1.3 1.4 -0.3
v 1.5 1.4 -0.3
v 1.6 1.4 -0.3
v 1.3 1.4 -0.4
v 1.5 1.4 -0.4
v 1.3 1.5 0.3
v 1.5 1.5 0.3
v 1.3 1.5 0.2
v 1.4 1.5 0.2
v 1.3 1.5 0.1
v 1.4 1.5 0.1
v 1.5 1.5 0.1
v 1.3 1.5 0
v 1.4 1.5 0
v 1.3 1.5 -0.1
v 1.5 1.5 -0.1
v 1.3 1.5 -0.3
v 1.5 1.5 -0.3

# faces
f 4/3/1 2/3/1 1/3/1
f 5/3/1 2/3/1 4/3/1
f 7/3/1 4/3/1 3/3/1
f 7/3/1 6/3/1 5/3/1
f 7/3/1 5/3/1 4/3/1
f 8/3/1 6/3/1 7/3/1
f 9/3/1 6/3/1 8/3/1
f 10/3/1 6/3/1 9/3/1
f 11/3/1 9/3/1 8/3/1
f 12/3/1 9/3/1 11/3/1
f 17/3/1 14/3/1 13/3/1
f 18/3/1 14/3/1 17/3/1
f 19/3/1 16/3/1 15/3/1
f 20/3/1 16/3/1 19/3/1
f 25/3/1 22/3/1 21/3/1
f 26/3/1 22/3/1 25/3/1
f 27/3/1 24/3/1 23/3/1
f 28/3/1 24/3/1 27/3/1
f 32/2/1 30/2/1 29/2/1
f 33/2/1 30/2/1 32/2/1
f 35/2/1 32/2/1 31/2/1
f 36/2/1 32/2/1 35/2/1
f 41/2/1 34/2/1 33/2/1
f 42/2/1 34/2/1 41/2/1
f 43/2/1 37/2/1 36/2/1
f 44/1/1 38/1/1 37/1/1
f 44/2/1 37/2/1 43/2/1
f 45/2/1 39/2/1 38/2/1
f 45/1/1 38/1/1 44/1/1
f 46/1/1 40/1/1 39/1/1
f 46/2/1 39/2/1 45/2/1
f 47/2/1 41/2/1 40/2/1
f 47/1/1 40/1/1 46/1/1
f 48/2/1 41/2/1 47/2/1
f 51/3/1 50/3/1 49/3/1
f 52/3/1 50/3/1 51/3/1
f 53/3/1 51/3/1 49/3/1
f 54/3/1 50/3/1 52/3/1
f 55/3/1 53/3/1 49/3/1
f 55/3/1 54/3/1 53/3/1
f 56/3/1 54/3/1 55/3/1
f 57/3/1 54/3/1 56/3/1
f 58/3/1 50/3/1 54/3/1
f 58/3/1 54/3/1 57/3/1
f 61/4/1 60/4/1 59/4/1
f 62/4/1 60/4/1 61/4/1
f 63/3/2 64/3/2 65/3/2
f 65/3/2 64/3/2 66/3/2
f 67/3/2 68/3/2 69/3/2
f 69/3/2 68/3/2 70/3/2
f 67/3/2 69/3/2 71/3/2
f 70/3/2 68/3/2 72/3/2
f 67/3/2 71/3/2 73/3/2
f 71/3/2 72/3/2 73/3/2
f 73/3/2 72/3/2 74/3/2
f 74/3/2 72/3/2 75/3/2
f 75/3/2 72/3/2 76/3/2
f 76/3/2 72/3/2 77/3/2
f 72/3/2 68/3/2 78/3/2
f 77/3/2 72/3/2 78/3/2
f 79/2/2 80/2/2 82/2/2
f 82/2/2 80/2/2 83/2/2
f 81/2/2 82/2/2 85/2/2
f 85/2/2 82/2/2 86/2/2
f 83/2/2 84/2/2 89/2/2
f 89/2/2 84/2/2 90/2/2
f 86/2/2 87/2/2 91/2/2
f 87/1/2 88/1/2 92/1/2
f 91/2/2 87/2/2 92/2/2
f 88/2/2 89/2/2 93/2/2
f 92/1/2 88/1/2 93/1/2
f 93/2/2 89/2/2 94/2/2
f 95/3/2 96/3/2 97/3/2
f 97/3/2 96/3/2 98/3/2
f 95/3/2 97/3/2 99/3/2
f 98/3/2 96/3/2 100/3/2
f 95/3/2 99/3/2 101/3/2
f 99/3/2 100/3/2 101/3/2
f 100/3/2 96/3/2 102/3/2
f 101/3/2 100/3/2 102/3/2
f 103/4/2 104/4/2 105/4/2
f 105/4/2 104/4/2 106/4/2
f 109/2/3 108/2/3 107/2/3
f 110/2/3 108/2/3 109/2/3
f 114/3/3 112/3/3 111/3/3
f 115/3/3 112/3/3 114/3/3
f 118/3/3 114/3/3 113/3/3
f 118/3/3 116/3/3 115/3/3
f 118/3/3 115/3/3 114/3/3
f 119/3/3 116/3/3 118/3/3
f 121/2/3 118/2/3 117/2/3
f 122/2/3 118/2/3 121/2/3
f 123/2/3 120/2/3 119/2/3
f 124/2/3 120/2/3 123/2/3
f 125/3/3 123/3/3 122/3/3
f 126/3/3 123/3/3 125/3/3
f 131/3/3 128/3/3 127/3/3
f 132/3/3 128/3/3 131/3/3
f 133/3/3 130/3/3 129/3/3
f 134/3/3 130/3/3 133/3/3
f 137/4/3 136/4/3 135/4/3
f 138/4/3 136/4/3 137/4/3
f 141/3/3 140/3/3 139/3/3
f 142/3/3 140/3/3 141/3/3
f 145/3/3 144/3/3 143/3/3
f 146/3/3 144/3/3 145/3/3
f 149/2/3 148/2/3 147/2/3
f 150/2/3 148/2/3 149/2/3
f 151/2/4 152/2/4 153/2/4
f 153/2/4 152/2/4 154/2/4
f 155/3/4 156/3/4 157/3/4
f 157/3/4 156/3/4 158/3/4
f 159/3/4 160/3/4 161/3/4
f 161/3/4 160/3/4 162/3/4
f 163/3/4 164/3/4 167/3/4
f 167/3/4 164/3/4 168/3/4
f 165/3/4 166/3/4 169/3/4
f 169/3/4 166/3/4 170/3/4
f 171/4/4 172/4/4 173/4/4
f 173/4/4 172/4/4 174/4/4
f 175/3/4 176/3/4 178/3/4
f 178/3/4 176/3/4 179/3/4
f 177/3/4 178/3/4 182/3/4
f 179/3/4 180/3/4 182/3/4
f 178/3/4 179/3/4 182/3/4
f 182/3/4 180/3/4 183/3/4
f 181/2/4 182/2/4 185/2/4
f 185/2/4 182/2/4 186/2/4
f 183/2/4 184/2/4 187/2/4
f 187/2/4 184/2/4 188/2/4
f 186/3/4 187/3/4 189/3/4
f 189/3/4 187/3/4 190/3/4
f 191/2/4 192/2/4 193/2/4
f 193/2/4 192/2/4 194/2/4
f 197/2/5 196/2/5 195/2/5
f 198/2/5 196/2/5 197/2/5
f 202/2/5 200/2/5 199/2/5
f 203/2/5 200/2/5 202/2/5
f 206/3/5 202/3/5 201/3/5
f 207/3/5 206/3/5 205/3/5
f 208/3/5 202/3/5 206/3/5
f 208/3/5 206/3/5 207/3/5
f 209/3/5 202/3/5 208/3/5
f 210/3/5 202/3/5 209/3/5
f 211/3/5 204/3/5 203/3/5
f 212/3/5 204/3/5 211/3/5
f 213/2/5 211/2/5 210/2/5
f 214/2/5 211/2/5 213/2/5
f 217/3/5 216/3/5 215/3/5
f 218/3/5 216/3/5 217/3/5
f 223/4/5 220/4/5 219/4/5
f 224/4/5 220/4/5 223/4/5
f 225/3/5 222/3/5 221/3/5
f 226/3/5 222/3/5 225/3/5
f 231/3/5 228/3/5 227/3/5
f 232/3/5 228/3/5 231/3/5
f 233/3/5 230/3/5 229/3/5
f 234/3/5 230/3/5 233/3/5
f 237/2/5 236/2/5 235/2/5
f 238/2/5 236/2/5 237/2/5
f 239/1/5 238/1/5 237/1/5
f 240/2/5 236/2/5 238/2/5
f 240/1/5 238/1/5 239/1/5
f 241/2/5 236/2/5 240/2/5
f 242/2/5 240/2/5 239/2/5
f 243/1/5 241/1/5 240/1/5
f 243/2/5 240/2/5 242/2/5
f 244/1/5 243/1/5 242/1/5
f 245/1/5 241/1/5 243/1/5
f 245/1/5 243/1/5 244/1/5
f 246/2/5 245/2/5 244/2/5
f 247/2/5 245/2/5 246/2/5
f 248/2/6 249/2/6 250/2/6
f 250/2/6 249/2/6 251/2/6
f 252/3/6 253/3/6 256/3/6
f 256/3/6 253/3/6 257/3/6
f 254/3/6 255/3/6 258/3/6
f 258/3/6 255/3/6 259/3/6
f 260/3/6 261/3/6 262/3/6
f 262/3/6 261/3/6 263/3/6
f 264/4/6 265/4/6 268/4/6
f 268/4/6 265/4/6 269/4/6
f 266/3/6 267/3/6 270/3/6
f 270/3/6 267/3/6 271/3/6
f 272/2/6 273/2/6 275/2/6
f 275/2/6 273/2/6 276/2/6
f 274/3/6 275/3/6 279/3/6
f 279/3/6 275/3/6 280/3/6
f 278/3/6 279/3/6 281/3/6
f 279/3/6 280/3/6 281/3/6
f 276/3/6 277/3/6 282/3/6
f 278/3/6 281/3/6 283/3/6
f 278/3/6 283/3/6 284/3/6
f 282/3/6 277/3/6 285/3/6
f 278/3/6 284/3/6 286/3/6
f 286/3/6 284/3/6 287/3/6
f 287/3/6 284/3/6 288/3/6
f 288/3/6 284/3/6 289/3/6
f 285/3/6 277/3/6 290/3/6
f 290/3/6 277/3/6 291/3/6
f 289/2/6 290/2/6 292/2/6
f 292/2/6 290/2/6 293/2/6
f 294/2/6 295/2/6 296/2/6
f 296/2/6 295/2/6 297/2/6
f 296/1/6 297/1/6 298/1/6
f 297/2/6 295/2/6 299/2/6
f 298/1/6 297/1/6 299/1/6
f 299/2/6 295/2/6 300/2/6
f 298/2/6 299/2/6 301/2/6
f 299/1/6 300/1/6 302/1/6
f 301/2/6 299/2/6 302/2/6
f 301/1/6 302/1/6 303/1/6
f 302/1/6 300/1/6 304/1/6
f 303/1/6 302/1/6 304/1/6
f 303/2/6 304/2/6 305/2/6
f 305/2/6 304/2/6 306/2/6
