# MagicaVoxel @ Ephtracy

# group
o 

# material
mtllib right leg.mtl
usemtl palette

# normals
vn -1 0 0
vn 1 0 0
vn 0 0 1
vn 0 0 -1
vn 0 -1 0
vn 0 1 0

# texcoords
vt 0.751953 0.5
vt 0.755859 0.5
vt 0.759766 0.5
vt 0.912109 0.5
vt 0.919922 0.5
vt 0.974609 0.5

# verts
v -0.7 0.2 0.3
v -0.7 0.2 0.2
v -0.7 0.2 -0.1
v -0.7 0.2 -0.2
v -0.7 0.3 0.2
v -0.7 0.3 -0.1
v -0.7 0.4 0.3
v -0.7 0.4 -0.2
v -0.6 0 0.4
v -0.6 0 -0.1
v -0.6 0.1 -0.1
v -0.6 0.1 -0.2
v -0.6 0.2 0.4
v -0.6 0.2 0.3
v -0.6 0.2 0.2
v -0.6 0.2 -0.1
v -0.6 0.2 -0.2
v -0.6 0.2 -0.3
v -0.6 0.3 -0.2
v -0.6 0.3 -0.3
v -0.6 0.4 0.2
v -0.6 0.4 -0.2
v -0.6 0.4 -0.3
v -0.6 0.5 0.2
v -0.6 0.5 -0.2
v -0.5 0 -0.1
v -0.5 0 -0.2
v -0.5 0.1 -0.1
v -0.5 0.1 -0.2
v -0.3 0.3 0.2
v -0.3 0.3 0.1
v -0.3 0.4 0.2
v -0.3 0.4 0.1
v -0.2 0.2 0.2
v -0.2 0.2 -0.1
v -0.2 0.2 -0.2
v -0.2 0.3 0.2
v -0.2 0.3 0.1
v -0.2 0.3 -0.1
v -0.2 0.3 -0.2
v -0.2 0.4 0.1
v -0.2 0.4 -0.2
v -0.6 0.2 0.2
v -0.6 0.2 -0.1
v -0.6 0.2 -0.2
v -0.6 0.3 0.2
v -0.6 0.3 -0.1
v -0.6 0.3 -0.2
v -0.6 0.4 0.2
v -0.6 0.4 -0.2
v -0.3 0.4 0.2
v -0.3 0.4 0.1
v -0.3 0.5 0.2
v -0.3 0.5 0.1
v -0.2 0 0.4
v -0.2 0 -0.2
v -0.2 0.2 0.4
v -0.2 0.2 0.3
v -0.2 0.2 0.2
v -0.2 0.2 -0.1
v -0.2 0.2 -0.2
v -0.2 0.3 0.3
v -0.2 0.3 0.2
v -0.2 0.4 0.3
v -0.2 0.4 0.2
v -0.2 0.4 0.1
v -0.2 0.4 -0.2
v -0.2 0.5 0.1
v -0.2 0.5 -0.2
v -0.1 0.2 0.2
v -0.1 0.2 -0.1
v -0.1 0.2 -0.3
v -0.1 0.3 0.2
v -0.1 0.3 0.1
v -0.1 0.3 -0.1
v -0.1 0.3 -0.2
v -0.1 0.4 0.2
v -0.1 0.4 0.1
v -0.1 0.4 -0.2
v -0.1 0.4 -0.3
v -0.6 0 0.4
v -0.6 0.2 0.4
v -0.2 0 0.4
v -0.2 0.2 0.4
v -0.7 0.2 0.3
v -0.7 0.4 0.3
v -0.6 0.2 0.3
v -0.4 0.2 0.3
v -0.4 0.3 0.3
v -0.2 0.2 0.3
v -0.2 0.3 0.3
v -0.2 0.4 0.3
v -0.6 0.4 0.2
v -0.6 0.5 0.2
v -0.3 0.4 0.2
v -0.3 0.5 0.2
v -0.2 0.2 0.2
v -0.2 0.3 0.2
v -0.2 0.4 0.2
v -0.1 0.2 0.2
v -0.1 0.3 0.2
v -0.1 0.4 0.2
v -0.3 0.4 0.1
v -0.3 0.5 0.1
v -0.2 0.4 0.1
v -0.2 0.5 0.1
v -0.6 0.2 -0.2
v -0.6 0.3 -0.2
v -0.6 0.4 -0.2
v -0.4 0.3 -0.2
v -0.4 0.4 -0.2
v -0.3 0.3 -0.2
v -0.3 0.4 -0.2
v -0.2 0.2 -0.2
v -0.2 0.3 -0.2
v -0.2 0.4 -0.2
v -0.6 0.2 0.2
v -0.6 0.3 0.2
v -0.6 0.4 0.2
v -0.5 0.2 0.2
v -0.4 0.2 0.2
v -0.4 0.3 0.2
v -0.3 0.2 0.2
v -0.3 0.3 0.2
v -0.3 0.4 0.2
v -0.2 0.2 0.2
v -0.2 0.3 0.2
v -0.3 0.3 0.1
v -0.3 0.4 0.1
v -0.2 0.3 0.1
v -0.2 0.4 0.1
v -0.6 0 -0.1
v -0.6 0.1 -0.1
v -0.5 0 -0.1
v -0.5 0.1 -0.1
v -0.7 0.2 -0.2
v -0.7 0.4 -0.2
v -0.6 0.1 -0.2
v -0.6 0.2 -0.2
v -0.6 0.3 -0.2
v -0.6 0.4 -0.2
v -0.6 0.5 -0.2
v -0.5 0 -0.2
v -0.5 0.1 -0.2
v -0.4 0.4 -0.2
v -0.3 0.4 -0.2
v -0.2 0 -0.2
v -0.2 0.2 -0.2
v -0.2 0.4 -0.2
v -0.2 0.5 -0.2
v -0.6 0.2 -0.3
v -0.6 0.3 -0.3
v -0.6 0.4 -0.3
v -0.4 0.3 -0.3
v -0.4 0.4 -0.3
v -0.3 0.3 -0.3
v -0.3 0.4 -0.3
v -0.2 0.2 -0.3
v -0.2 0.3 -0.3
v -0.1 0.2 -0.3
v -0.1 0.4 -0.3
v -0.6 0 0.4
v -0.2 0 0.4
v -0.6 0 -0.1
v -0.5 0 -0.1
v -0.5 0 -0.2
v -0.2 0 -0.2
v -0.6 0.1 -0.1
v -0.5 0.1 -0.1
v -0.6 0.1 -0.2
v -0.5 0.1 -0.2
v -0.7 0.2 0.3
v -0.6 0.2 0.3
v -0.7 0.2 0.2
v -0.6 0.2 0.2
v -0.2 0.2 0.2
v -0.1 0.2 0.2
v -0.7 0.2 -0.1
v -0.6 0.2 -0.1
v -0.2 0.2 -0.1
v -0.1 0.2 -0.1
v -0.7 0.2 -0.2
v -0.6 0.2 -0.2
v -0.2 0.2 -0.2
v -0.6 0.2 -0.3
v -0.2 0.2 -0.3
v -0.1 0.2 -0.3
v -0.3 0.3 0.2
v -0.2 0.3 0.2
v -0.3 0.3 0.1
v -0.2 0.3 0.1
v -0.6 0.4 0.2
v -0.3 0.4 0.2
v -0.3 0.4 0.1
v -0.2 0.4 0.1
v -0.6 0.4 -0.2
v -0.4 0.4 -0.2
v -0.3 0.4 -0.2
v -0.2 0.4 -0.2
v -0.6 0.2 0.4
v -0.2 0.2 0.4
v -0.6 0.2 0.3
v -0.4 0.2 0.3
v -0.2 0.2 0.3
v -0.6 0.2 0.2
v -0.5 0.2 0.2
v -0.4 0.2 0.2
v -0.3 0.2 0.2
v -0.2 0.2 0.2
v -0.5 0.2 0.1
v -0.3 0.2 0.1
v -0.6 0.2 -0.1
v -0.5 0.2 -0.1
v -0.3 0.2 -0.1
v -0.2 0.2 -0.1
v -0.6 0.2 -0.2
v -0.2 0.2 -0.2
v -0.7 0.4 0.3
v -0.2 0.4 0.3
v -0.6 0.4 0.2
v -0.3 0.4 0.2
v -0.2 0.4 0.2
v -0.1 0.4 0.2
v -0.3 0.4 0.1
v -0.2 0.4 0.1
v -0.1 0.4 0.1
v -0.7 0.4 -0.2
v -0.6 0.4 -0.2
v -0.4 0.4 -0.2
v -0.3 0.4 -0.2
v -0.2 0.4 -0.2
v -0.1 0.4 -0.2
v -0.6 0.4 -0.3
v -0.4 0.4 -0.3
v -0.3 0.4 -0.3
v -0.1 0.4 -0.3
v -0.6 0.5 0.2
v -0.3 0.5 0.2
v -0.3 0.5 0.1
v -0.2 0.5 0.1
v -0.6 0.5 -0.2
v -0.2 0.5 -0.2

# faces
f 5/1/1 2/1/1 1/1/1
f 5/2/1 3/2/1 2/2/1
f 6/1/1 4/1/1 3/1/1
f 6/2/1 3/2/1 5/2/1
f 7/1/1 5/1/1 1/1/1
f 7/1/1 6/1/1 5/1/1
f 8/1/1 4/1/1 6/1/1
f 8/1/1 6/1/1 7/1/1
f 11/5/1 10/5/1 9/5/1
f 13/5/1 11/5/1 9/5/1
f 13/5/1 12/5/1 11/5/1
f 14/5/1 12/5/1 13/5/1
f 15/5/1 12/5/1 14/5/1
f 16/5/1 12/5/1 15/5/1
f 17/5/1 12/5/1 16/5/1
f 19/1/1 18/1/1 17/1/1
f 20/1/1 18/1/1 19/1/1
f 22/2/1 20/2/1 19/2/1
f 23/2/1 20/2/1 22/2/1
f 24/5/1 22/5/1 21/5/1
f 25/5/1 22/5/1 24/5/1
f 28/5/1 27/5/1 26/5/1
f 29/5/1 27/5/1 28/5/1
f 32/5/1 31/5/1 30/5/1
f 33/5/1 31/5/1 32/5/1
f 37/1/1 35/1/1 34/1/1
f 38/1/1 35/1/1 37/1/1
f 39/3/1 36/3/1 35/3/1
f 39/1/1 35/1/1 38/1/1
f 40/3/1 36/3/1 39/3/1
f 41/1/1 39/1/1 38/1/1
f 41/1/1 40/1/1 39/1/1
f 42/1/1 40/1/1 41/1/1
f 43/2/2 44/2/2 46/2/2
f 44/1/2 45/1/2 47/1/2
f 46/2/2 44/2/2 47/2/2
f 47/1/2 45/1/2 48/1/2
f 46/1/2 47/1/2 49/1/2
f 47/1/2 48/1/2 49/1/2
f 49/1/2 48/1/2 50/1/2
f 51/5/2 52/5/2 53/5/2
f 53/5/2 52/5/2 54/5/2
f 55/5/2 56/5/2 57/5/2
f 57/5/2 56/5/2 58/5/2
f 58/5/2 56/5/2 59/5/2
f 59/5/2 56/5/2 60/5/2
f 60/5/2 56/5/2 61/5/2
f 58/3/2 59/3/2 62/3/2
f 62/3/2 59/3/2 63/3/2
f 62/1/2 63/1/2 64/1/2
f 64/1/2 63/1/2 65/1/2
f 66/5/2 67/5/2 68/5/2
f 68/5/2 67/5/2 69/5/2
f 70/1/2 71/1/2 73/1/2
f 73/1/2 71/1/2 74/1/2
f 71/3/2 72/3/2 75/3/2
f 74/1/2 71/1/2 75/1/2
f 75/3/2 72/3/2 76/3/2
f 73/3/2 74/3/2 77/3/2
f 74/1/2 75/1/2 78/1/2
f 77/3/2 74/3/2 78/3/2
f 75/1/2 76/1/2 78/1/2
f 76/3/2 72/3/2 79/3/2
f 78/1/2 76/1/2 79/1/2
f 79/3/2 72/3/2 80/3/2
f 83/5/3 82/5/3 81/5/3
f 84/5/3 82/5/3 83/5/3
f 87/1/3 86/1/3 85/1/3
f 88/1/3 86/1/3 87/1/3
f 89/1/3 86/1/3 88/1/3
f 90/3/3 89/3/3 88/3/3
f 91/1/3 86/1/3 89/1/3
f 91/3/3 89/3/3 90/3/3
f 92/1/3 86/1/3 91/1/3
f 95/5/3 94/5/3 93/5/3
f 96/5/3 94/5/3 95/5/3
f 100/1/3 98/1/3 97/1/3
f 101/3/3 99/3/3 98/3/3
f 101/1/3 98/1/3 100/1/3
f 102/3/3 99/3/3 101/3/3
f 105/5/3 104/5/3 103/5/3
f 106/5/3 104/5/3 105/5/3
f 110/1/3 108/1/3 107/1/3
f 110/2/3 109/2/3 108/2/3
f 111/2/3 109/2/3 110/2/3
f 112/1/3 110/1/3 107/1/3
f 112/1/3 111/1/3 110/1/3
f 113/1/3 111/1/3 112/1/3
f 114/1/3 112/1/3 107/1/3
f 115/3/3 113/3/3 112/3/3
f 115/1/3 112/1/3 114/1/3
f 116/3/3 113/3/3 115/3/3
f 117/1/4 118/1/4 120/1/4
f 118/1/4 119/1/4 120/1/4
f 120/1/4 119/1/4 121/1/4
f 121/1/4 119/1/4 122/1/4
f 121/3/4 122/3/4 123/3/4
f 122/1/4 119/1/4 124/1/4
f 123/3/4 122/3/4 124/3/4
f 124/1/4 119/1/4 125/1/4
f 123/3/4 124/3/4 126/3/4
f 126/3/4 124/3/4 127/3/4
f 128/5/4 129/5/4 130/5/4
f 130/5/4 129/5/4 131/5/4
f 132/5/4 133/5/4 134/5/4
f 134/5/4 133/5/4 135/5/4
f 136/1/4 137/1/4 139/1/4
f 139/1/4 137/1/4 140/1/4
f 140/1/4 137/1/4 141/1/4
f 138/5/4 139/5/4 144/5/4
f 141/5/4 142/5/4 145/5/4
f 145/5/4 142/5/4 146/5/4
f 143/5/4 144/5/4 147/5/4
f 144/5/4 139/5/4 148/5/4
f 147/5/4 144/5/4 148/5/4
f 146/5/4 142/5/4 149/5/4
f 149/5/4 142/5/4 150/5/4
f 151/1/4 152/1/4 154/1/4
f 152/2/4 153/2/4 154/2/4
f 154/2/4 153/2/4 155/2/4
f 151/1/4 154/1/4 156/1/4
f 154/1/4 155/1/4 156/1/4
f 156/1/4 155/1/4 157/1/4
f 151/1/4 156/1/4 158/1/4
f 156/3/4 157/3/4 159/3/4
f 158/1/4 156/1/4 159/1/4
f 158/3/4 159/3/4 160/3/4
f 159/3/4 157/3/4 161/3/4
f 160/3/4 159/3/4 161/3/4
f 164/5/5 163/5/5 162/5/5
f 165/5/5 163/5/5 164/5/5
f 166/5/5 163/5/5 165/5/5
f 167/5/5 163/5/5 166/5/5
f 170/5/5 169/5/5 168/5/5
f 171/5/5 169/5/5 170/5/5
f 174/1/5 173/1/5 172/1/5
f 175/1/5 173/1/5 174/1/5
f 178/2/5 175/2/5 174/2/5
f 179/2/5 175/2/5 178/2/5
f 180/1/5 177/1/5 176/1/5
f 181/1/5 177/1/5 180/1/5
f 182/1/5 179/1/5 178/1/5
f 183/1/5 179/1/5 182/1/5
f 184/3/5 181/3/5 180/3/5
f 185/1/5 184/1/5 183/1/5
f 186/3/5 181/3/5 184/3/5
f 186/1/5 184/1/5 185/1/5
f 187/3/5 181/3/5 186/3/5
f 190/5/5 189/5/5 188/5/5
f 191/5/5 189/5/5 190/5/5
f 194/5/5 193/5/5 192/5/5
f 196/5/5 194/5/5 192/5/5
f 196/5/5 195/5/5 194/5/5
f 197/5/5 195/5/5 196/5/5
f 198/5/5 195/5/5 197/5/5
f 199/5/5 195/5/5 198/5/5
f 200/5/6 201/5/6 202/5/6
f 202/5/6 201/5/6 203/5/6
f 203/5/6 201/5/6 204/5/6
f 205/5/6 206/5/6 210/5/6
f 206/4/6 207/4/6 210/4/6
f 207/4/6 208/4/6 210/4/6
f 208/5/6 209/5/6 211/5/6
f 210/4/6 208/4/6 211/4/6
f 205/5/6 210/5/6 212/5/6
f 210/6/6 211/6/6 213/6/6
f 212/5/6 210/5/6 213/5/6
f 211/5/6 209/5/6 214/5/6
f 213/6/6 211/6/6 214/6/6
f 214/5/6 209/5/6 215/5/6
f 212/5/6 213/5/6 216/5/6
f 213/5/6 214/5/6 216/5/6
f 214/5/6 215/5/6 216/5/6
f 216/5/6 215/5/6 217/5/6
f 218/1/6 219/1/6 220/1/6
f 220/1/6 219/1/6 221/1/6
f 221/1/6 219/1/6 222/1/6
f 221/5/6 222/5/6 224/5/6
f 222/3/6 223/3/6 225/3/6
f 224/5/6 222/5/6 225/5/6
f 225/3/6 223/3/6 226/3/6
f 218/1/6 220/1/6 227/1/6
f 227/1/6 220/1/6 228/1/6
f 225/1/6 226/1/6 231/1/6
f 231/1/6 226/1/6 232/1/6
f 228/2/6 229/2/6 233/2/6
f 229/1/6 230/1/6 234/1/6
f 233/2/6 229/2/6 234/2/6
f 231/3/6 232/3/6 235/3/6
f 234/1/6 230/1/6 235/1/6
f 230/3/6 231/3/6 235/3/6
f 235/3/6 232/3/6 236/3/6
f 237/5/6 238/5/6 239/5/6
f 237/5/6 239/5/6 241/5/6
f 239/5/6 240/5/6 241/5/6
f 241/5/6 240/5/6 242/5/6
