# MagicaVoxel @ Ephtracy

# group
o 

# material
mtllib ll2.mtl
usemtl palette

# normals
vn -1 0 0
vn 1 0 0
vn 0 0 1
vn 0 0 -1
vn 0 -1 0
vn 0 1 0

# texcoords
vt 0.00195313 0.5
vt 0.279297 0.5
vt 0.841797 0.5
vt 0.955078 0.5

# verts
v 1.3 3.3 -1.5
v 1.3 3.3 -2.8
v 1.3 3.8 -1.5
v 1.3 3.8 -2.8
v 1.6 2 -2
v 1.6 2 -2.3
v 1.6 2.3 -2
v 1.6 2.3 -2.3
v 1.6 2.6 -2
v 1.6 2.6 -2.3
v 1.6 2.9 -2
v 1.6 2.9 -2.3
v 1.6 3.2 -2
v 1.6 3.2 -2.3
v 1.6 3.3 -2
v 1.6 3.3 -2.3
v 1.6 3.8 -2
v 1.6 3.8 -2.3
v 1.6 4.1 -2
v 1.6 4.1 -2.3
v 1.9 2 -2
v 1.9 2 -2.3
v 1.9 2.3 -2
v 1.9 2.3 -2.3
v 1.9 2.6 -2
v 1.9 2.6 -2.3
v 1.9 2.9 -2
v 1.9 2.9 -2.3
v 1.9 3.2 -2
v 1.9 3.2 -2.3
v 1.9 3.3 -1.5
v 1.9 3.3 -2
v 1.9 3.3 -2.3
v 1.9 3.3 -2.8
v 1.9 3.5 -2
v 1.9 3.5 -2.3
v 1.9 3.8 -1.5
v 1.9 3.8 -2
v 1.9 3.8 -2.3
v 1.9 3.8 -2.8
v 1.9 4.1 -2
v 1.9 4.1 -2.3
v 1.3 3.3 -1.5
v 1.3 3.8 -1.5
v 1.4 3.3 -1.5
v 1.4 3.7 -1.5
v 1.5 3.3 -1.5
v 1.5 3.7 -1.5
v 1.9 3.3 -1.5
v 1.9 3.8 -1.5
v 1.6 2 -2
v 1.6 2.3 -2
v 1.6 2.6 -2
v 1.6 2.9 -2
v 1.6 3.2 -2
v 1.6 3.3 -2
v 1.6 3.8 -2
v 1.6 4.1 -2
v 1.9 2 -2
v 1.9 2.3 -2
v 1.9 2.6 -2
v 1.9 2.9 -2
v 1.9 3.2 -2
v 1.9 3.3 -2
v 1.9 3.8 -2
v 1.9 4.1 -2
v 1.6 2 -2.3
v 1.6 2.3 -2.3
v 1.6 2.6 -2.3
v 1.6 2.9 -2.3
v 1.6 3.2 -2.3
v 1.6 3.3 -2.3
v 1.6 3.8 -2.3
v 1.6 4.1 -2.3
v 1.9 2 -2.3
v 1.9 2.3 -2.3
v 1.9 2.6 -2.3
v 1.9 2.9 -2.3
v 1.9 3.2 -2.3
v 1.9 3.3 -2.3
v 1.9 3.8 -2.3
v 1.9 4.1 -2.3
v 1.3 3.3 -2.8
v 1.3 3.8 -2.8
v 1.4 3.3 -2.8
v 1.4 3.7 -2.8
v 1.5 3.3 -2.8
v 1.5 3.7 -2.8
v 1.9 3.3 -2.8
v 1.9 3.8 -2.8
v 1.6 2 -2
v 1.9 2 -2
v 1.6 2 -2.3
v 1.9 2 -2.3
v 1.3 3.3 -1.5
v 1.4 3.3 -1.5
v 1.5 3.3 -1.5
v 1.9 3.3 -1.5
v 1.6 3.3 -2
v 1.9 3.3 -2
v 1.4 3.3 -2.1
v 1.5 3.3 -2.1
v 1.4 3.3 -2.2
v 1.5 3.3 -2.2
v 1.6 3.3 -2.3
v 1.9 3.3 -2.3
v 1.3 3.3 -2.8
v 1.4 3.3 -2.8
v 1.5 3.3 -2.8
v 1.9 3.3 -2.8
v 1.3 3.8 -1.5
v 1.9 3.8 -1.5
v 1.6 3.8 -2
v 1.9 3.8 -2
v 1.6 3.8 -2.3
v 1.9 3.8 -2.3
v 1.3 3.8 -2.8
v 1.9 3.8 -2.8
v 1.6 4.1 -2
v 1.9 4.1 -2
v 1.6 4.1 -2.3
v 1.9 4.1 -2.3

# faces
f 3/4/1 2/4/1 1/4/1
f 4/4/1 2/4/1 3/4/1
f 7/1/1 6/1/1 5/1/1
f 8/1/1 6/1/1 7/1/1
f 9/2/1 8/2/1 7/2/1
f 10/2/1 8/2/1 9/2/1
f 11/1/1 10/1/1 9/1/1
f 12/1/1 10/1/1 11/1/1
f 13/2/1 12/2/1 11/2/1
f 14/2/1 12/2/1 13/2/1
f 15/1/1 14/1/1 13/1/1
f 16/1/1 14/1/1 15/1/1
f 19/1/1 18/1/1 17/1/1
f 20/1/1 18/1/1 19/1/1
f 21/1/2 22/1/2 23/1/2
f 23/1/2 22/1/2 24/1/2
f 23/2/2 24/2/2 25/2/2
f 25/2/2 24/2/2 26/2/2
f 25/1/2 26/1/2 27/1/2
f 27/1/2 26/1/2 28/1/2
f 27/2/2 28/2/2 29/2/2
f 29/2/2 28/2/2 30/2/2
f 29/1/2 30/1/2 32/1/2
f 32/1/2 30/1/2 33/1/2
f 32/1/2 33/1/2 35/1/2
f 31/4/2 32/4/2 35/4/2
f 33/4/2 34/4/2 36/4/2
f 35/1/2 33/1/2 36/1/2
f 31/4/2 35/4/2 37/4/2
f 35/2/2 36/2/2 38/2/2
f 37/4/2 35/4/2 38/4/2
f 36/4/2 34/4/2 39/4/2
f 38/2/2 36/2/2 39/2/2
f 39/4/2 34/4/2 40/4/2
f 38/1/2 39/1/2 41/1/2
f 41/1/2 39/1/2 42/1/2
f 45/4/3 44/4/3 43/4/3
f 46/4/3 44/4/3 45/4/3
f 47/3/3 46/3/3 45/3/3
f 48/4/3 44/4/3 46/4/3
f 48/3/3 46/3/3 47/3/3
f 49/4/3 48/4/3 47/4/3
f 50/4/3 44/4/3 48/4/3
f 50/4/3 48/4/3 49/4/3
f 59/1/3 52/1/3 51/1/3
f 60/2/3 53/2/3 52/2/3
f 60/1/3 52/1/3 59/1/3
f 61/1/3 54/1/3 53/1/3
f 61/2/3 53/2/3 60/2/3
f 62/2/3 55/2/3 54/2/3
f 62/1/3 54/1/3 61/1/3
f 63/1/3 56/1/3 55/1/3
f 63/2/3 55/2/3 62/2/3
f 64/1/3 56/1/3 63/1/3
f 65/1/3 58/1/3 57/1/3
f 66/1/3 58/1/3 65/1/3
f 67/1/4 68/1/4 75/1/4
f 68/2/4 69/2/4 76/2/4
f 75/1/4 68/1/4 76/1/4
f 69/1/4 70/1/4 77/1/4
f 76/2/4 69/2/4 77/2/4
f 70/2/4 71/2/4 78/2/4
f 77/1/4 70/1/4 78/1/4
f 71/1/4 72/1/4 79/1/4
f 78/2/4 71/2/4 79/2/4
f 79/1/4 72/1/4 80/1/4
f 73/1/4 74/1/4 81/1/4
f 81/1/4 74/1/4 82/1/4
f 83/4/4 84/4/4 85/4/4
f 85/4/4 84/4/4 86/4/4
f 85/3/4 86/3/4 87/3/4
f 86/4/4 84/4/4 88/4/4
f 87/3/4 86/3/4 88/3/4
f 87/4/4 88/4/4 89/4/4
f 88/4/4 84/4/4 90/4/4
f 89/4/4 88/4/4 90/4/4
f 93/1/5 92/1/5 91/1/5
f 94/1/5 92/1/5 93/1/5
f 99/4/5 98/4/5 97/4/5
f 100/4/5 98/4/5 99/4/5
f 101/4/5 96/4/5 95/4/5
f 101/3/5 97/3/5 96/3/5
f 102/4/5 99/4/5 97/4/5
f 102/3/5 97/3/5 101/3/5
f 103/4/5 101/4/5 95/4/5
f 103/4/5 102/4/5 101/4/5
f 104/4/5 99/4/5 102/4/5
f 104/4/5 102/4/5 103/4/5
f 105/4/5 99/4/5 104/4/5
f 107/4/5 103/4/5 95/4/5
f 108/3/5 104/3/5 103/3/5
f 108/4/5 103/4/5 107/4/5
f 109/4/5 106/4/5 105/4/5
f 109/3/5 104/3/5 108/3/5
f 109/4/5 105/4/5 104/4/5
f 110/4/5 106/4/5 109/4/5
f 111/4/6 112/4/6 113/4/6
f 113/4/6 112/4/6 114/4/6
f 111/4/6 113/4/6 115/4/6
f 111/4/6 115/4/6 117/4/6
f 115/4/6 116/4/6 117/4/6
f 117/4/6 116/4/6 118/4/6
f 119/1/6 120/1/6 121/1/6
f 121/1/6 120/1/6 122/1/6
